<?xml version="1.0" standalone="no"?>
<!DOCTYPE svg PUBLIC "-//W3C//DTD SVG 1.1//EN" "http://www.w3.org/Graphics/SVG/1.1/DTD/svg11.dtd" >
<svg xmlns="http://www.w3.org/2000/svg">
<metadata>Generated by IcoMoon</metadata>
<defs>
<font id="icomoon" horiz-adv-x="1024">
<font-face units-per-em="1024" ascent="960" descent="-64" />
<missing-glyph horiz-adv-x="1024" />
<glyph unicode="&#x20;" horiz-adv-x="512" d="" />
<glyph unicode="&#xe900;" glyph-name="chev-r" d="M624 448l-310.4-278.4c-12.8-12.8-12.8-32-3.2-44.8 12.8-12.8 32-12.8 44.8-3.2l364.8 326.4-364.8 326.4c-6.4 6.4-12.8 9.6-22.4 9.6s-16-3.2-22.4-9.6c-12.8-12.8-9.6-32 3.2-44.8l310.4-281.6z" />
<glyph unicode="&#xe901;" glyph-name="chev-l" d="M400 448l310.4 278.4c12.8 12.8 12.8 32 3.2 44.8-12.8 12.8-32 12.8-44.8 3.2l-364.8-326.4 364.8-326.4c6.4-6.4 12.8-9.6 22.4-9.6s16 3.2 22.4 9.6c12.8 12.8 9.6 32-3.2 44.8l-310.4 281.6z" />
<glyph unicode="&#xe902;" glyph-name="circle-r" d="M540.8 691.2c-12.8 12.8-32 9.6-44.8-3.2s-9.6-32 3.2-44.8l182.4-163.2h-432c-19.2 0-32-12.8-32-32s12.8-32 32-32h432l-182.4-163.2c-12.8-12.8-12.8-32-3.2-44.8 6.4-6.4 16-9.6 22.4-9.6s16 3.2 22.4 9.6l272 243.2-272 240zM512 912c-256 0-464-208-464-464s208-464 464-464 464 208 464 464-208 464-464 464zM512 48c-220.8 0-400 179.2-400 400s179.2 400 400 400 400-179.2 400-400-179.2-400-400-400z" />
<glyph unicode="&#xe903;" glyph-name="circle-l" d="M483.2 204.8c12.8-12.8 32-9.6 44.8 3.2s9.6 32-3.2 44.8l-182.4 163.2h432c19.2 0 32 12.8 32 32s-12.8 32-32 32h-432l182.4 163.2c12.8 12.8 12.8 32 3.2 44.8-6.4 6.4-16 9.6-22.4 9.6s-16-3.2-22.4-9.6l-272-240 272-243.2zM512-16c256 0 464 208 464 464s-208 464-464 464-464-208-464-464 208-464 464-464zM512 848c220.8 0 400-179.2 400-400s-179.2-400-400-400-400 179.2-400 400 179.2 400 400 400z" />
<glyph unicode="&#xe904;" glyph-name="plane-st" d="M585.6 553.6c-9.6 0-16-3.2-22.4-9.6l-96-102.4c-12.8-12.8-12.8-32 0-44.8 6.4-6.4 12.8-9.6 22.4-9.6 0 0 0 0 0 0s0 0 0 0c9.6 0 16 3.2 22.4 9.6l96 102.4c12.8 12.8 12.8 32 0 44.8-6.4 6.4-12.8 9.6-22.4 9.6zM403.2 198.4l-25.6 51.2 38.4 41.6c12.8 12.8 12.8 32 0 44.8s-32 12.8-44.8 0l-38.4-41.6-54.4 22.4c-16 6.4-35.2 0-41.6-16s0-35.2 16-41.6l64-25.6 28.8-60.8c6.4-12.8 16-19.2 28.8-19.2 3.2 0 9.6 0 12.8 3.2 16 6.4 22.4 25.6 16 41.6zM963.2 889.6c0 3.2 0 3.2 0 0 0 3.2 0 6.4 0 6.4s0 3.2 0 3.2c0 0 0 3.2 0 3.2s-3.2 3.2-3.2 3.2c0 0 0 3.2 0 3.2s0 0-3.2 0c0 0 0 0 0 0s0 0 0 0 0 0 0 0-3.2 0-3.2 3.2c0 0-3.2 3.2-3.2 3.2s0 0-3.2 0c0 0 0 0 0 0s-3.2 0-3.2 0-3.2 0-6.4 0c0 0-3.2 0-3.2 0s-3.2 0-3.2 0c0 0-3.2 0-3.2 0s-3.2 0-3.2 0c0 0-3.2 0-3.2-3.2 0 0-3.2 0-3.2 0l-67.2-41.6c-19.2-6.4-25.6-25.6-16-38.4 3.2-3.2 6.4-6.4 9.6-9.6 0 0 0 0 0 0 3.2-3.2 3.2-6.4 6.4-12.8 3.2-3.2 3.2-3.2 6.4-3.2 3.2-3.2 6.4-6.4 6.4-6.4 6.4-6.4 16-6.4 25.6-6.4 3.2-6.4 12.8-12.8 22.4-12.8 3.2 0 3.2 0 6.4 0 16 0 28.8 9.6 32 25.6l12.8 80c0 0 0 0 0 3.2 0 0 0 0 0 0zM582.4 636.8c6.4 0 12.8 3.2 16 6.4l137.6 86.4-76.8-83.2c-12.8-12.8-12.8-32 0-44.8 6.4-6.4 12.8-9.6 22.4-9.6 0 0 0 0 0 0s0 0 0 0c9.6 0 16 3.2 22.4 9.6 3.2-6.4 6.4-9.6 9.6-12.8 6.4-3.2 12.8-6.4 19.2-6.4 9.6 0 19.2 3.2 25.6 12.8l73.6 105.6c9.6 12.8 6.4 35.2-6.4 44.8-6.4 6.4-16 6.4-25.6 6.4 0 0 0 0 0 0-6.4 6.4-16 9.6-22.4 9.6-9.6 0-16-3.2-22.4-9.6l-6.4-6.4c3.2 9.6 3.2 22.4 0 32-9.6 16-28.8 19.2-44.8 9.6l-140.8-89.6c-16-9.6-19.2-28.8-9.6-44.8 6.4-9.6 19.2-16 28.8-16zM300.8 460.8c6.4 0 12.8 3.2 16 6.4l140.8 89.6c16 9.6 19.2 28.8 9.6 44.8s-28.8 19.2-44.8 9.6l-140.8-89.6c-16-9.6-19.2-28.8-9.6-44.8 9.6-12.8 19.2-16 28.8-16zM179.2 358.4l-16 6.4 16 9.6c12.8 9.6 19.2 32 9.6 44.8-9.6 16-28.8 19.2-44.8 9.6l-67.2-41.6c-9.6-6.4-16-19.2-16-28.8s9.6-22.4 19.2-25.6l73.6-32c3.2-3.2 9.6-3.2 12.8-3.2 12.8 0 25.6 6.4 28.8 19.2 9.6 16 0 35.2-16 41.6zM678.4 537.6c-12.8 9.6-35.2 6.4-44.8-6.4l-73.6-105.6c-9.6-12.8-6.4-35.2 6.4-44.8 6.4-3.2 12.8-6.4 19.2-6.4 9.6 0 19.2 3.2 25.6 12.8l73.6 105.6c9.6 12.8 6.4 35.2-6.4 44.8zM854.4 435.2c-19.2 3.2-35.2-9.6-38.4-25.6l-22.4-137.6c-3.2-16 9.6-35.2 25.6-38.4 3.2 0 3.2 0 6.4 0 16 0 28.8 9.6 32 25.6l22.4 137.6c3.2 19.2-9.6 35.2-25.6 38.4zM899.2 707.2c-19.2 3.2-35.2-9.6-38.4-25.6l-22.4-137.6c-3.2-16 9.6-35.2 25.6-38.4 3.2 0 3.2 0 6.4 0 16 0 28.8 9.6 32 25.6l22.4 137.6c3.2 19.2-6.4 35.2-25.6 38.4zM806.4 160c-16 3.2-35.2-9.6-38.4-25.6l-6.4-35.2-25.6 19.2c-16 9.6-35.2 3.2-44.8-12.8s-3.2-35.2 12.8-44.8l70.4-38.4c6.4-3.2 9.6-3.2 16-3.2 3.2 0 9.6 0 12.8 3.2 9.6 3.2 16 12.8 19.2 22.4l12.8 80c0 16-9.6 35.2-28.8 35.2zM572.8 182.4c-3.2 3.2-6.4 3.2-9.6 3.2 6.4 12.8 0 32-12.8 38.4l-38.4 22.4 25.6 35.2c9.6 12.8 6.4 35.2-6.4 44.8-16 9.6-35.2 6.4-44.8-6.4l-48-64c-6.4-6.4-6.4-16-6.4-25.6 3.2-9.6 6.4-16 16-22.4l70.4-38.4c3.2 0 6.4-3.2 6.4-3.2l-60.8-89.6-6.4 16c-6.4 16-25.6 22.4-41.6 16s-22.4-25.6-16-41.6l35.2-70.4c6.4-12.8 16-19.2 28.8-19.2 3.2 0 9.6 0 12.8 3.2 12.8 6.4 16 16 16 28.8 0 0 0 0 0 0l86.4 131.2c12.8 9.6 9.6 32-6.4 41.6z" />
<glyph unicode="&#xe906;" glyph-name="user" d="M633.6 470.4l-19.2 6.4-12.8-16c-25.6-28.8-60.8-48-99.2-48-35.2 0-70.4 16-96 41.6l-16 16-19.2-6.4c-137.6-54.4-243.2-112-243.2-278.4 0-83.2 169.6-160 361.6-160 198.4 0 412.8 51.2 412.8 160-3.2 179.2-134.4 240-268.8 284.8zM486.4 86.4c-188.8 0-294.4 70.4-297.6 96 0 124.8 70.4 166.4 185.6 214.4 35.2-28.8 80-44.8 124.8-44.8 51.2 0 99.2 19.2 134.4 51.2 134.4-48 201.6-96 201.6-220.8 0-38.4-137.6-96-348.8-96zM512 480c108.8 0 198.4 89.6 198.4 198.4s-89.6 195.2-198.4 195.2-198.4-89.6-198.4-198.4 89.6-195.2 198.4-195.2zM512 809.6c73.6 0 134.4-60.8 134.4-134.4s-60.8-134.4-134.4-134.4c-73.6 0-134.4 60.8-134.4 134.4s60.8 134.4 134.4 134.4z" />
<glyph unicode="&#xe907;" glyph-name="edit-p" d="M960 582.4c-19.2 0-32-12.8-32-32v-496c0-12.8-9.6-25.6-25.6-25.6h-780.8c-16 3.2-25.6 12.8-25.6 28.8v780.8c0 16 9.6 25.6 25.6 25.6h448c19.2 0 32 12.8 32 32s-12.8 32-32 32h-448c-51.2 0-89.6-38.4-89.6-89.6v-784c0-48 38.4-86.4 89.6-86.4h784c48 0 89.6 38.4 89.6 89.6v492.8c-3.2 19.2-16 32-35.2 32zM256 358.4c-3.2-3.2-6.4-9.6-9.6-16l-38.4-176c-3.2-9.6 0-22.4 9.6-32 6.4-3.2 12.8-6.4 19.2-6.4 3.2 0 6.4 0 9.6 0l172.8 54.4c6.4 3.2 12.8 6.4 16 9.6 3.2 0 6.4 0 6.4 0s0 0 0 0c9.6 0 16 3.2 22.4 9.6l428.8 460.8c6.4 6.4 9.6 16 9.6 22.4 0 9.6-3.2 16-9.6 22.4l-160 147.2c-12.8 12.8-32 12.8-44.8-3.2l-425.6-457.6c-9.6-9.6-12.8-22.4-6.4-35.2zM710.4 787.2l112-102.4-380.8-412.8-112 102.4 380.8 412.8zM304 310.4l76.8-70.4-99.2-32 22.4 102.4zM736 96c19.2 0 32 12.8 32 32v64h64c19.2 0 32 12.8 32 32s-12.8 32-32 32h-64v64c0 19.2-12.8 32-32 32s-32-12.8-32-32v-64h-64c-19.2 0-32-12.8-32-32s12.8-32 32-32h64v-64c0-19.2 12.8-32 32-32z" />
<glyph unicode="&#xe908;" glyph-name="upload" d="M246.4 531.2l217.6 240v-556.8c0-19.2 12.8-32 32-32s32 12.8 32 32v556.8l217.6-240c6.4-6.4 16-9.6 22.4-9.6s16 3.2 22.4 9.6c12.8 12.8 12.8 32 3.2 44.8l-297.6 326.4-294.4-329.6c-12.8-12.8-9.6-32 3.2-44.8 9.6-12.8 32-9.6 41.6 3.2zM912 345.6h-259.2c-19.2 0-32-12.8-32-32s12.8-32 32-32h259.2v-224h-800v224h236.8c19.2 0 32 12.8 32 32s-12.8 32-32 32h-236.8c-35.2 0-64-28.8-64-64v-224c0-35.2 28.8-64 64-64h800c35.2 0 64 28.8 64 64v224c0 35.2-28.8 64-64 64zM848 169.6c0-35.346-28.654-64-64-64s-64 28.654-64 64c0 35.346 28.654 64 64 64s64-28.654 64-64z" />
<glyph unicode="&#xe909;" glyph-name="download" d="M496 185.6l294.4 329.6c12.8 12.8 9.6 32-3.2 44.8s-32 9.6-44.8-3.2l-217.6-240v553.6c0 19.2-12.8 32-32 32s-32-12.8-32-32v-556.8l-217.6 240c-12.8 12.8-32 12.8-44.8 3.2-12.8-12.8-12.8-32-3.2-44.8l300.8-326.4zM912 345.6h-131.2c-19.2 0-32-12.8-32-32s12.8-32 32-32h131.2v-224h-800v224h108.8c19.2 0 32 12.8 32 32s-12.8 32-32 32h-108.8c-35.2 0-64-28.8-64-64v-224c0-35.2 28.8-64 64-64h800c35.2 0 64 28.8 64 64v224c0 35.2-28.8 64-64 64zM848 166.4c0-35.346-28.654-64-64-64s-64 28.654-64 64c0 35.346 28.654 64 64 64s64-28.654 64-64z" />
<glyph unicode="&#xe90a;" glyph-name="time" d="M512 480c-6.4 0-9.6 0-16-3.2l-153.6 153.6c-12.8 12.8-32 12.8-44.8 0s-12.8-32 0-44.8l153.6-153.6c0-6.4-3.2-9.6-3.2-16 0-22.4 12.8-44.8 32-54.4v-201.6c0-19.2 12.8-32 32-32s32 12.8 32 32v201.6c19.2 9.6 32 32 32 54.4 0 35.2-28.8 64-64 64zM512 896c-246.4 0-448-201.6-448-448s201.6-448 448-448 448 201.6 448 448-201.6 448-448 448zM512 64c-211.2 0-384 172.8-384 384s172.8 384 384 384 384-172.8 384-384-172.8-384-384-384zM320 448h-96c-19.2 0-32-12.8-32-32s12.8-32 32-32h96c19.2 0 32 12.8 32 32s-12.8 32-32 32zM800 448h-96c-19.2 0-32-12.8-32-32s12.8-32 32-32h96c19.2 0 32 12.8 32 32s-12.8 32-32 32zM512 608c19.2 0 32 12.8 32 32v96c0 19.2-12.8 32-32 32s-32-12.8-32-32v-96c0-19.2 12.8-32 32-32z" />
<glyph unicode="&#xe90b;" glyph-name="config" d="M512 592c-80 0-144-64-144-144s64-144 144-144 144 64 144 144-64 144-144 144zM512 368c-44.8 0-80 35.2-80 80s35.2 80 80 80 80-35.2 80-80-35.2-80-80-80zM892.8 592h-32l22.4 22.4c25.6 25.6 25.6 64 0 86.4l-115.2 118.4c-22.4 22.4-64 22.4-86.4 0l-22.4-22.4v32c0 35.2-28.8 60.8-60.8 60.8h-163.2c-35.2 0-60.8-28.8-60.8-60.8v-32l-22.4 22.4c-22.4 22.4-64 22.4-86.4 0l-124.8-115.2c-25.6-25.6-25.6-64 0-86.4l22.4-22.4h-32c-35.2 0-60.8-28.8-60.8-60.8v-163.2c0-35.2 28.8-60.8 60.8-60.8h32l-22.4-22.4c-25.6-25.6-25.6-64 0-86.4l115.2-124.8c22.4-22.4 64-22.4 86.4 0l22.4 22.4v-32c0-35.2 28.8-60.8 60.8-60.8h163.2c35.2 0 60.8 28.8 60.8 60.8v32l22.4-22.4c22.4-22.4 64-22.4 86.4 0l115.2 115.2c25.6 25.6 25.6 64 0 86.4l-22.4 22.4h32c35.2 0 60.8 28.8 60.8 60.8v163.2c9.6 38.4-16 67.2-51.2 67.2zM889.6 368h-86.4l-6.4-22.4c-3.2-9.6-6.4-19.2-12.8-28.8l-9.6-19.2 60.8-57.6-112-115.2-60.8 60.8-19.2-9.6c-9.6-3.2-19.2-9.6-28.8-12.8l-22.4-6.4 3.2-86.4-163.2-3.2v86.4l-22.4 6.4c-9.6 3.2-19.2 6.4-28.8 12.8l-19.2 9.6-57.6-60.8-115.2 112 60.8 60.8-9.6 19.2c-3.2 9.6-9.6 19.2-12.8 28.8l-6.4 22.4h-86.4v160h86.4l6.4 22.4c3.2 9.6 6.4 19.2 12.8 28.8l9.6 19.2-64 60.8 112 115.2 60.8-60.8 19.2 9.6c9.6 3.2 19.2 9.6 28.8 12.8l22.4 6.4-3.2 86.4 163.2 3.2v-86.4l22.4-6.4c9.6-3.2 19.2-6.4 28.8-12.8l19.2-9.6 57.6 60.8 115.2-112-60.8-60.8 9.6-19.2c3.2-9.6 9.6-19.2 12.8-28.8l6.4-22.4h86.4v-163.2z" />
<glyph unicode="&#xe90c;" glyph-name="loupe" d="M937.6 150.4l-284.8 284.8c-12.8 12.8-25.6 19.2-38.4 22.4 25.6 44.8 41.6 92.8 41.6 147.2 0 163.2-131.2 294.4-294.4 294.4s-294.4-131.2-294.4-294.4 131.2-294.4 294.4-294.4c51.2 0 99.2 12.8 140.8 35.2 3.2-16 9.6-32 22.4-41.6l284.8-284.8c16-16 35.2-25.6 57.6-25.6s41.6 9.6 57.6 25.6l16 16c28.8 32 28.8 83.2-3.2 115.2zM124.8 604.8c0 128 102.4 230.4 230.4 230.4s230.4-102.4 230.4-230.4-102.4-230.4-230.4-230.4c-124.8 0-230.4 105.6-230.4 230.4zM892.8 80l-16-16c-6.4-6.4-19.2-6.4-25.6 0l-284.8 284.8c-3.2 3.2-6.4 9.6-6.4 12.8 0 6.4 3.2 9.6 6.4 12.8l16 16c3.2 3.2 9.6 6.4 12.8 6.4s9.6-3.2 12.8-6.4l284.8-284.8c6.4-6.4 6.4-19.2 0-25.6z" />
<glyph unicode="&#xe90d;" glyph-name="report" d="M860.8 934.4h-697.6c-35.2 0-64-28.8-64-64v-848c0-35.2 28.8-64 64-64h697.6c35.2 0 64 28.8 64 64v848c0 35.2-28.8 64-64 64zM860.8 25.6c0 0 0 0 0 0h-697.6v848h697.6v-848zM508.8 329.6c76.8 0 147.2 41.6 185.6 108.8 9.6 16 3.2 35.2-12.8 44.8l-105.6 60.8 108.8 64c16 9.6 19.2 28.8 12.8 44.8-38.4 67.2-108.8 108.8-185.6 108.8-118.4 0-214.4-96-214.4-214.4s96-217.6 211.2-217.6zM508.8 694.4c41.6 0 83.2-19.2 112-51.2l-124.8-73.6c-9.6-3.2-16-12.8-16-25.6s6.4-22.4 16-28.8l124.8-73.6c-28.8-32-67.2-51.2-112-51.2-83.2 0-150.4 67.2-150.4 150.4s70.4 153.6 150.4 153.6zM649.6 217.6h-284.8c-19.2 0-32-12.8-32-32s12.8-32 32-32h284.8c19.2 0 32 12.8 32 32s-12.8 32-32 32z" />
<glyph unicode="&#xe90e;" glyph-name="zip" d="M860.8 934.4h-697.6c-35.2 0-64-28.8-64-64v-848c0-35.2 28.8-64 64-64h697.6c35.2 0 64 28.8 64 64v848c0 35.2-28.8 64-64 64zM608 768h-32c-19.2 0-32-12.8-32-32s12.8-32 32-32h32v-64h-32c-19.2 0-32-12.8-32-32s12.8-32 32-32h32v-64h-32c-19.2 0-32-12.8-32-32s12.8-32 32-32h32v-64h-32c-19.2 0-32-12.8-32-32s12.8-32 32-32h32v-64h-32c-19.2 0-32-12.8-32-32s12.8-32 32-32h32v-166.4h-444.8v848h380.8c0-3.2 0-6.4 0-6.4 0-19.2 12.8-32 32-32h32v-67.2zM860.8 25.6c0 0 0 0 0 0h-188.8v102.4h32c19.2 0 32 12.8 32 32s-12.8 32-32 32h-32v64h32c19.2 0 32 12.8 32 32s-12.8 32-32 32h-32v64h32c19.2 0 32 12.8 32 32s-12.8 32-32 32h-32v64h32c19.2 0 32 12.8 32 32s-12.8 32-32 32h-32v64h32c19.2 0 32 12.8 32 32s-12.8 32-32 32h-32v64h32c19.2 0 32 12.8 32 32s-12.8 32-32 32h-32v38.4h188.8v-844.8z" />
<glyph unicode="&#xe90f;" glyph-name="music" d="M860.8 934.4h-697.6c-35.2 0-64-28.8-64-64v-848c0-35.2 28.8-64 64-64h697.6c35.2 0 64 28.8 64 64v848c0 35.2-28.8 64-64 64zM860.8 25.6c0 0 0 0 0 0h-697.6v848h697.6v-848zM246.4 355.2h48v-9.6c0-12.8 6.4-22.4 16-28.8l102.4-60.8c6.4-3.2 9.6-3.2 16-3.2s9.6 0 16 3.2c9.6 6.4 16 16 16 28.8v326.4c0 12.8-6.4 22.4-16 28.8s-22.4 6.4-32 0l-99.2-64c-9.6-6.4-16-16-16-28.8v-9.6h-51.2c-19.2 0-32-12.8-32-32v-121.6c0-16 16-28.8 32-28.8zM278.4 476.8h48c19.2 0 32 12.8 32 32v22.4l38.4 22.4v-211.2l-38.4 22.4v22.4c0 19.2-12.8 32-32 32h-48v57.6zM547.2 348.8c-16-6.4-25.6-22.4-19.2-41.6 3.2-12.8 16-22.4 28.8-22.4 3.2 0 6.4 0 9.6 3.2 3.2 0 99.2 35.2 99.2 160s-96 156.8-99.2 160c-16 6.4-35.2-3.2-41.6-19.2s3.2-35.2 19.2-41.6c0 0 54.4-19.2 54.4-99.2 3.2-76.8-44.8-96-51.2-99.2zM662.4 592c3.2 0 83.2-32 83.2-144s-80-144-83.2-144c-16-6.4-25.6-22.4-19.2-41.6 3.2-12.8 16-22.4 28.8-22.4 3.2 0 6.4 0 9.6 3.2 6.4 3.2 128 44.8 128 204.8s-121.6 204.8-128 204.8c-16 6.4-35.2-3.2-41.6-19.2-3.2-16 6.4-35.2 22.4-41.6z" />
<glyph unicode="&#xe910;" glyph-name="pdf" d="M860.8 934.4h-697.6c-35.2 0-64-28.8-64-64v-848c0-35.2 28.8-64 64-64h697.6c35.2 0 64 28.8 64 64v848c0 35.2-28.8 64-64 64zM860.8 25.6c0 0 0 0 0 0h-697.6v848h697.6v-848zM233.6 179.2c3.2-9.6 12.8-19.2 28.8-19.2 0 0 3.2 0 3.2 0 32 0 73.6 35.2 131.2 112 9.6 12.8 16 22.4 22.4 35.2 73.6 32 131.2 48 176 57.6 48-38.4 108.8-80 153.6-70.4 16 3.2 32 16 38.4 32 9.6 25.6 3.2 44.8-3.2 57.6-25.6 38.4-92.8 38.4-96 38.4-16 0-41.6 0-83.2-9.6-12.8 12.8-28.8 25.6-41.6 38.4-19.2 19.2-41.6 44.8-57.6 73.6 22.4 102.4 6.4 176-16 204.8-12.8 16-28.8 16-35.2 16-9.6-3.2-22.4-9.6-28.8-35.2-12.8-60.8 3.2-128 35.2-188.8-6.4-28.8-19.2-60.8-35.2-96l-9.6-19.2c-9.6-19.2-19.2-41.6-28.8-60.8-169.6-86.4-160-153.6-153.6-166.4v0zM691.2 374.4c16 0 51.2-6.4 60.8-19.2 0 0 3.2-6.4 0-16-3.2-3.2-3.2-6.4-6.4-6.4-16-3.2-51.2 12.8-89.6 38.4 12.8 3.2 25.6 3.2 35.2 3.2zM467.2 684.8c6.4-16 12.8-48 9.6-92.8-9.6 28.8-16 60.8-9.6 92.8zM457.6 380.8l9.6 19.2c9.6 22.4 19.2 44.8 25.6 67.2 12.8-19.2 28.8-35.2 41.6-51.2 0 0 9.6-9.6 22.4-19.2-32-9.6-67.2-19.2-108.8-35.2 3.2 6.4 6.4 12.8 9.6 19.2zM342.4 265.6c-35.2-44.8-57.6-57.6-67.2-64 3.2 12.8 22.4 35.2 67.2 64z" />
<glyph unicode="&#xe911;" glyph-name="video" d="M860.8 934.4h-697.6c-35.2 0-64-28.8-64-64v-848c0-35.2 28.8-64 64-64h697.6c35.2 0 64 28.8 64 64v848c0 35.2-28.8 64-64 64zM860.8 25.6c0 0 0 0 0 0h-697.6v848h697.6v-848zM342.4 243.2c6.4-3.2 9.6-3.2 16-3.2s9.6 0 16 3.2l304 176c9.6 6.4 16 16 16 28.8s-6.4 22.4-16 28.8l-304 176c-9.6 6.4-22.4 6.4-32 0s-16-16-16-28.8v-352c0-12.8 6.4-22.4 16-28.8zM390.4 569.6l208-121.6-208-121.6v243.2z" />
<glyph unicode="&#xe912;" glyph-name="image" d="M316.8 576c3.2 0 3.2 0 3.2 0 32 0 60.8 25.6 64 60.8 0 16-3.2 32-16 48-9.6 9.6-25.6 19.2-44.8 19.2-35.2 3.2-64-25.6-67.2-60.8 0-16 3.2-32 16-48 9.6-9.6 25.6-19.2 44.8-19.2zM860.8 934.4h-697.6c-35.2 0-64-28.8-64-64v-848c0-35.2 28.8-64 64-64h697.6c35.2 0 64 28.8 64 64v848c0 35.2-28.8 64-64 64zM860.8 25.6c0 0 0 0 0 0h-697.6v848h697.6v-848zM281.6 204.8l108.8 137.6 198.4-140.8c6.4-3.2 12.8-6.4 19.2-6.4 9.6 0 19.2 3.2 25.6 12.8 9.6 12.8 6.4 35.2-6.4 44.8l-89.6 64 105.6 92.8 108.8-80c12.8-9.6 35.2-6.4 44.8 6.4s6.4 35.2-6.4 44.8l-128 96c-12.8 9.6-28.8 9.6-41.6 0l-137.6-124.8-80 57.6c-12.8 9.6-32 6.4-44.8-6.4l-128-160c-9.6-12.8-9.6-35.2 6.4-44.8 12.8-9.6 32-9.6 44.8 6.4z" />
<glyph unicode="&#xe913;" glyph-name="copy" d="M739.2 800h-598.4c-32 0-60.8-25.6-60.8-60.8v-726.4c0-32 25.6-60.8 60.8-60.8h598.4c32 0 60.8 25.6 60.8 60.8v726.4c0 35.2-25.6 60.8-60.8 60.8zM736 16h-592v720h592v-720zM883.2 944h-614.4c-32 0-60.8-28.8-60.8-60.8v-16c0-19.2 12.8-32 32-32s32 12.8 32 32v12.8h608v-768h-19.2c-19.2 0-32-12.8-32-32s12.8-32 32-32h22.4c32 0 60.8 28.8 60.8 60.8v774.4c0 32-28.8 60.8-60.8 60.8zM249.6 544h384c19.2 0 32 12.8 32 32s-12.8 32-32 32h-384c-19.2 0-32-12.8-32-32s12.8-32 32-32zM640 416h-384c-19.2 0-32-12.8-32-32s12.8-32 32-32h384c19.2 0 32 12.8 32 32s-12.8 32-32 32zM512 224h-256c-19.2 0-32-12.8-32-32s12.8-32 32-32h256c19.2 0 32 12.8 32 32s-12.8 32-32 32z" />
<glyph unicode="&#xe914;" glyph-name="print" d="M870.4 560c0-35.346-28.654-64-64-64s-64 28.654-64 64c0 35.346 28.654 64 64 64s64-28.654 64-64zM950.4 752h-131.2v128c0 19.2-12.8 32-32 32h-544c-19.2 0-32-12.8-32-32v-131.2h-137.6c-19.2 0-32-12.8-32-32v-473.6c0-19.2 12.8-32 32-32h131.2v-198.4c0-19.2 12.8-32 32-32h540.8c19.2 0 32 12.8 32 32v198.4h137.6c19.2 0 32 12.8 32 32v476.8c3.2 16-12.8 32-28.8 32zM272 848h480v-99.2h-480v99.2zM272 48v352h476.8v-144c0-3.2-3.2-6.4-3.2-12.8s0-6.4 3.2-12.8v-188.8h-476.8zM918.4 278.4h-105.6v153.6c0 19.2-12.8 32-32 32h-540.8c-19.2 0-32-12.8-32-32v-153.6h-102.4v409.6h806.4v-409.6zM649.6 332.8h-284.8c-19.2 0-32-12.8-32-32s12.8-32 32-32h284.8c19.2 0 32 12.8 32 32s-12.8 32-32 32zM649.6 185.6h-284.8c-19.2 0-32-12.8-32-32s12.8-32 32-32h284.8c19.2 0 32 12.8 32 32s-12.8 32-32 32z" />
<glyph unicode="&#xe915;" glyph-name="mail" d="M905.6 793.6h-787.2c-32 0-60.8-25.6-60.8-60.8v-569.6c0-32 25.6-60.8 60.8-60.8h790.4c32 0 60.8 25.6 60.8 60.8v569.6c-3.2 32-28.8 60.8-64 60.8zM512 358.4l-345.6 371.2h684.8l-339.2-371.2zM374.4 412.8l-252.8-208v480l252.8-272zM419.2 364.8l70.4-73.6c6.4-6.4 16-9.6 22.4-9.6 0 0 0 0 0 0 9.6 0 16 3.2 22.4 9.6l67.2 73.6 233.6-198.4h-659.2l243.2 198.4zM646.4 412.8l256 278.4v-496l-256 217.6z" />
<glyph unicode="&#xe916;" glyph-name="box" d="M976 860.8c0 3.2 0 6.4-3.2 9.6 0 0 0 0 0 0s0 0 0 0c0 3.2-3.2 6.4-6.4 9.6 0 0-3.2 0-3.2 3.2-3.2 3.2-3.2 3.2-6.4 3.2 0 0-3.2 0-3.2 0-3.2 0-6.4 3.2-9.6 3.2h-640c-9.6 0-16-3.2-22.4-9.6l-224-224c0 0 0 0 0 0-3.2 0-6.4-3.2-6.4-6.4 0 0 0-3.2 0-3.2 0-3.2 0-6.4-3.2-9.6 0 0 0 0 0-3.2v-598.4c0-19.2 12.8-32 32-32h640c3.2 0 9.6 0 12.8 3.2s6.4 3.2 9.6 6.4l224 224c6.4 6.4 9.6 12.8 9.6 22.4v601.6c0-3.2 0 0 0 0zM316.8 825.6h550.4l-48-48h-550.4l48 48zM204.8 713.6c3.2 0 3.2 0 0 0h550.4l-48-48h-550.4l48 48zM112 601.6h576v-534.4h-576v534.4zM752 115.2v505.6l64 64v-236.8c0-19.2 12.8-32 32-32s32 12.8 32 32v297.6c0 0 0 0 0 3.2l32 32v-505.6l-160-160z" />
<glyph unicode="&#xe917;" glyph-name="timer" d="M793.6 604.8l38.4 38.4 12.8-12.8c6.4-6.4 12.8-6.4 19.2-6.4s12.8 3.2 16 6.4c9.6 9.6 9.6 25.6 0 35.2l-51.2 54.4c-9.6 9.6-25.6 9.6-35.2 0s-9.6-25.6 0-35.2l6.4-6.4-44.8-38.4c-57.6 48-131.2 80-211.2 89.6v35.2h64c44.8 0 80 35.2 80 80s-35.2 80-80 80h-192c-44.8 0-80-35.2-80-80s35.2-80 80-80h64v-38.4c-195.2-16-345.6-179.2-345.6-377.6 0-208 169.6-377.6 377.6-377.6s377.6 169.6 377.6 377.6c0 99.2-35.2 188.8-96 256zM400 844.8c0 9.6 6.4 16 16 16h192c9.6 0 16-6.4 16-16s-6.4-16-16-16h-192c-9.6 0-16 9.6-16 16zM512 25.6c-179.2 0-326.4 147.2-326.4 326.4s147.2 323.2 326.4 323.2 326.4-147.2 326.4-326.4-147.2-323.2-326.4-323.2zM512 508.8c12.8 0 25.6 12.8 25.6 25.6v73.6c0 12.8-12.8 25.6-25.6 25.6s-25.6-12.8-25.6-25.6v-76.8c0-12.8 12.8-22.4 25.6-22.4zM294.4 419.2l160-83.2c6.4-25.6 28.8-44.8 54.4-44.8 32 0 57.6 25.6 57.6 57.6s-22.4 57.6-54.4 57.6c-12.8 0-22.4-3.2-32-9.6l-156.8 80c-16 6.4-35.2 3.2-41.6-12.8s-3.2-35.2 12.8-44.8zM720 320c-9.6 0-19.2-9.6-19.2-19.2 0-6.4-3.2-172.8-172.8-172.8-201.6 0-204.8 166.4-204.8 172.8 0 9.6-6.4 19.2-16 19.2s-19.2-3.2-22.4-12.8l-32-96c-3.2-9.6 3.2-22.4 12.8-25.6s22.4 3.2 25.6 12.8l9.6 28.8c22.4-60.8 83.2-137.6 227.2-137.6 208 0 211.2 211.2 211.2 211.2 0 12.8-9.6 19.2-19.2 19.2z" />
<glyph unicode="&#xe918;" glyph-name="keyboard" d="M915.2 569.6h-480v140.8c0 16 6.4 32 32 32 9.6 0 16-3.2 19.2-6.4 9.6-9.6 12.8-28.8 12.8-38.4 0-32 28.8-83.2 99.2-83.2 44.8 0 96 19.2 96 115.2v140.8c0 19.2-12.8 32-32 32s-32-12.8-32-32v-140.8c0-44.8-9.6-51.2-32-51.2-25.6 0-32 12.8-35.2 19.2 0 6.4 0 51.2-28.8 83.2-16 16-38.4 25.6-64 25.6-70.4 0-96-57.6-96-96v-144h-265.6c-41.6 0-73.6-32-73.6-73.6v-428.8c0-41.6 32-73.6 73.6-73.6h803.2c41.6 0 73.6 32 73.6 73.6v428.8c3.2 41.6-32 76.8-70.4 76.8zM790.4 198.4h-92.8v48h92.8v-48zM790.4 57.6h-540.8v80h537.6v-80zM480 505.6v-64h-83.2v64h83.2zM544 198.4v48h89.6v-48h-89.6zM480 249.6v-48h-83.2v48h83.2zM396.8 313.6v64h83.2v-64h-83.2zM544 313.6v64h89.6v-64h-89.6zM544 441.6v64h89.6v-64h-89.6zM332.8 441.6h-83.2v64h83.2v-64zM332.8 377.6v-64h-83.2v64h83.2zM185.6 313.6h-86.4v64h86.4v-64zM185.6 249.6v-48h-86.4v48h86.4zM249.6 249.6h83.2v-48h-83.2v48zM697.6 313.6v64h92.8v-64h-92.8zM697.6 441.6v64h92.8v-64h-92.8zM108.8 505.6h76.8v-64h-86.4v54.4c0 3.2 6.4 9.6 9.6 9.6zM99.2 67.2v70.4h86.4v-80h-76.8c-3.2 0-9.6 3.2-9.6 9.6zM915.2 57.6h-60.8v80h70.4v-70.4c0-6.4-6.4-9.6-9.6-9.6zM924.8 198.4h-70.4v176h70.4v-176zM924.8 441.6h-70.4v64h60.8c6.4 0 9.6-3.2 9.6-9.6v-54.4z" />
<glyph unicode="&#xe919;" glyph-name="home" d="M979.2 496l-156.8 144v169.6c0 35.2-28.8 60.8-60.8 60.8h-64c-32 0-57.6-25.6-60.8-57.6l-105.6 96c-12.8 12.8-32 12.8-41.6 0l-448-416c-9.6-9.6-12.8-22.4-6.4-35.2 6.4-9.6 16-16 28.8-16h102.4v-435.2c0-16 12.8-32 32-32h192c16 0 32 12.8 32 32v300.8l92.8 48 92.8-48v-300.8c0-16 12.8-32 32-32h185.6c16 0 32 12.8 32 32v435.2h102.4c12.8 0 25.6 6.4 28.8 19.2s0 25.6-9.6 35.2zM825.6 505.6c-16 0-32-12.8-32-32v-435.2h-124.8v291.2c0 12.8-6.4 22.4-16 28.8l-124.8 64c-9.6 3.2-19.2 3.2-28.8 0l-124.8-64c-9.6-6.4-16-16-16-28.8v-291.2h-128v435.2c0 16-12.8 32-32 32h-54.4l368 339.2 134.4-124.8c0 0 3.2 0 3.2-3.2 3.2 0 3.2-3.2 6.4-3.2s3.2 0 6.4 0c0 0 3.2 0 3.2 0s0 0 0 0c3.2 0 6.4 0 6.4 0s3.2 0 3.2 0c0 0 3.2 3.2 3.2 3.2 3.2 0 3.2 3.2 6.4 3.2 0 0 0 0 0 0s0 3.2 3.2 3.2c0 3.2 3.2 3.2 3.2 6.4s0 3.2 0 6.4c0 0 0 3.2 0 3.2v0c0 0 0 0 0 0l-3.2 64h60.8v-182.4c0 0 0 0 0 0 0-3.2 0-6.4 0-6.4s0-3.2 0-3.2c0 0 3.2-3.2 3.2-3.2 0-3.2 3.2-3.2 3.2-6.4 0 0 0 0 0 0l108.8-99.2h-38.4z" />
<glyph unicode="&#xe91a;" glyph-name="b-graph" d="M211.2 675.2c0 0 3.2 0 3.2 0 32 0 57.6 25.6 60.8 57.6 3.2 35.2-22.4 64-57.6 67.2-32 0-60.8-25.6-64-60.8-3.2-32 22.4-60.8 57.6-64zM214.4 739.2c0 0 0 0 0 0 3.2 0 3.2-3.2 0 0v0c3.2-3.2 0-6.4 0-6.4s-3.2 3.2 0 6.4c-3.2-3.2 0 0 0 0zM371.2 675.2c0 0 3.2 0 3.2 0 32 0 57.6 25.6 60.8 57.6 3.2 35.2-22.4 64-57.6 67.2s-64-22.4-67.2-57.6c0-35.2 25.6-64 60.8-67.2zM374.4 739.2c0 0 0 0 0 0 3.2 0 3.2-3.2 0 0v0c3.2-3.2 0-6.4 0-6.4s-3.2 3.2 0 6.4c-3.2-3.2 0 0 0 0zM902.4 902.4h-780.8c-35.2 0-64-28.8-64-64v-780.8c0-35.2 28.8-64 64-64h780.8c35.2 0 64 28.8 64 64v780.8c0 35.2-28.8 64-64 64zM902.4 838.4v-204.8h-780.8v204.8h780.8zM902.4 57.6h-780.8v508.8h780.8v-508.8c0 0 0 0 0 0zM812.8 467.2c12.8 12.8 12.8 32 0 44.8s-32 12.8-44.8 0l-176-176-265.6 131.2-128-275.2c-6.4-16 0-35.2 16-41.6 3.2-3.2 9.6-3.2 12.8-3.2 12.8 0 22.4 6.4 28.8 19.2l99.2 214.4 246.4-124.8 211.2 211.2zM812.8 195.2h-336c-19.2 0-32-12.8-32-32s12.8-32 32-32h339.2c19.2 0 32 12.8 32 32s-16 32-35.2 32z" />
<glyph unicode="&#xe91b;" glyph-name="camera" d="M944 688v112c0 19.2-12.8 32-32 32h-128c-19.2 0-32-12.8-32-32v-112h-6.4l-28.8 153.6c0 12.8-12.8 22.4-28.8 22.4h-512c-16 0-28.8-9.6-28.8-25.6l-28.8-150.4h-38.4c-16 0-32-12.8-32-32v-595.2c0-16 12.8-32 32-32h864c16 0 32 12.8 32 32v595.2c0 16-16 32-32 32zM816 768h64v-64h-64v64zM912 92.8h-800v531.2h32c16 0 28.8 9.6 28.8 25.6l28.8 153.6h460.8l28.8-153.6c3.2-16 16-25.6 28.8-25.6h192v-531.2zM640 425.6l89.6-89.6c6.4-6.4 12.8-9.6 22.4-9.6s16 3.2 22.4 9.6l89.6 89.6c12.8 12.8 12.8 32 0 44.8l-89.6 89.6c-12.8 12.8-32 12.8-44.8 0l-89.6-89.6c-12.8-12.8-12.8-32 0-44.8zM752 492.8l44.8-44.8-44.8-44.8-44.8 44.8 44.8 44.8zM438.4 576c-6.4 0-16 0-22.4 0-115.2 0-208-92.8-208-208s92.8-208 208-208 208 92.8 208 208c0 105.6-80 195.2-185.6 208zM416 224c-80 0-144 64-144 144s64 144 144 144c6.4 0 9.6 0 16 0 73.6-6.4 128-70.4 128-144 0-80-64-144-144-144z" />
<glyph unicode="&#xe91c;" glyph-name="check" d="M966.4 774.4c-12.8 12.8-32 12.8-44.8 0l-579.2-579.2-233.6 352c-9.6 16-28.8 19.2-44.8 9.6s-19.2-28.8-9.6-44.8l256-384c6.4-6.4 12.8-12.8 22.4-12.8 0 0 3.2 0 3.2 0 9.6 0 16 3.2 22.4 9.6l608 608c12.8 9.6 12.8 28.8 0 41.6z" />
<glyph unicode="&#xe91d;" glyph-name="plus" d="M944 480h-400v400c0 19.2-12.8 32-32 32s-32-12.8-32-32v-400h-400c-19.2 0-32-12.8-32-32s12.8-32 32-32h400v-400c0-19.2 12.8-32 32-32s32 12.8 32 32v400h400c19.2 0 32 12.8 32 32s-12.8 32-32 32z" />
<glyph unicode="&#xe91e;" glyph-name="minus" d="M944 480h-864c-19.2 0-32-12.8-32-32s12.8-32 32-32h864c19.2 0 32 12.8 32 32s-12.8 32-32 32z" />
<glyph unicode="&#xe91f;" glyph-name="tongue" d="M512 896c-246.4 0-448-201.6-448-448s201.6-448 448-448 448 201.6 448 448-201.6 448-448 448zM512 64c-211.2 0-384 172.8-384 384s172.8 384 384 384 384-172.8 384-384-172.8-384-384-384zM358.4 432c57.6 0 105.6 48 105.6 105.6s-48 105.6-105.6 105.6-105.6-48-105.6-105.6 48-105.6 105.6-105.6zM358.4 579.2c22.4 0 41.6-19.2 41.6-41.6s-19.2-41.6-41.6-41.6c-22.4 0-41.6 19.2-41.6 41.6s19.2 41.6 41.6 41.6zM665.6 643.2c-57.6 0-105.6-48-105.6-105.6s48-105.6 105.6-105.6 105.6 48 105.6 105.6-48 105.6-105.6 105.6zM665.6 496c-22.4 0-41.6 19.2-41.6 41.6s19.2 41.6 41.6 41.6c22.4 0 41.6-19.2 41.6-41.6s-19.2-41.6-41.6-41.6zM720 352h-416c-19.2 0-32-12.8-32-32s12.8-32 32-32h80v-64c0-70.4 57.6-128 128-128s128 57.6 128 128v64h80c19.2 0 32 12.8 32 32s-12.8 32-32 32zM576 224c0-35.2-28.8-64-64-64s-64 28.8-64 64v64h32v-64c0-19.2 12.8-32 32-32s32 12.8 32 32v64h32v-64z" />
<glyph unicode="&#xe920;" glyph-name="neutral" d="M512 896c-246.4 0-448-201.6-448-448s201.6-448 448-448 448 201.6 448 448-201.6 448-448 448zM512 64c-211.2 0-384 172.8-384 384s172.8 384 384 384 384-172.8 384-384-172.8-384-384-384zM358.4 432c57.6 0 105.6 48 105.6 105.6s-48 105.6-105.6 105.6-105.6-48-105.6-105.6 48-105.6 105.6-105.6zM358.4 579.2c22.4 0 41.6-19.2 41.6-41.6s-19.2-41.6-41.6-41.6c-22.4 0-41.6 19.2-41.6 41.6s19.2 41.6 41.6 41.6zM665.6 643.2c-57.6 0-105.6-48-105.6-105.6s48-105.6 105.6-105.6 105.6 48 105.6 105.6-48 105.6-105.6 105.6zM665.6 496c-22.4 0-41.6 19.2-41.6 41.6s19.2 41.6 41.6 41.6c22.4 0 41.6-19.2 41.6-41.6s-19.2-41.6-41.6-41.6zM720 320h-416c-19.2 0-32-12.8-32-32s12.8-32 32-32h416c19.2 0 32 12.8 32 32s-12.8 32-32 32z" />
<glyph unicode="&#xe921;" glyph-name="angry" d="M512 896c-246.4 0-448-201.6-448-448s201.6-448 448-448 448 201.6 448 448-201.6 448-448 448zM512 64c-211.2 0-384 172.8-384 384 0 96 35.2 185.6 96 252.8 0-9.6 6.4-22.4 16-25.6l192-96c6.4-3.2 9.6-3.2 16-3.2 12.8 0 22.4 6.4 28.8 19.2 6.4 16 0 35.2-12.8 41.6l-192 96c-6.4 3.2-9.6 3.2-12.8 3.2 67.2 60.8 156.8 96 252.8 96s185.6-35.2 252.8-96c-3.2 0-6.4 0-12.8-3.2l-192-96c-16-6.4-22.4-25.6-12.8-41.6 6.4-12.8 16-19.2 28.8-19.2 3.2 0 9.6 0 12.8 3.2l192 96c12.8 6.4 19.2 16 19.2 25.6 60.8-67.2 96-156.8 96-252.8 0-211.2-172.8-384-384-384zM512 326.4c-160 0-211.2-128-211.2-134.4-6.4-16 3.2-35.2 19.2-41.6s35.2 3.2 41.6 19.2c0 0 35.2 92.8 153.6 92.8 115.2 0 150.4-89.6 153.6-92.8 6.4-12.8 16-19.2 28.8-19.2 3.2 0 6.4 0 12.8 3.2 16 6.4 25.6 25.6 19.2 41.6-6.4 3.2-57.6 131.2-217.6 131.2zM464 473.6c0 57.6-48 105.6-105.6 105.6s-105.6-48-105.6-105.6 48-105.6 105.6-105.6 105.6 48 105.6 105.6zM316.8 473.6c0 22.4 19.2 41.6 41.6 41.6s41.6-19.2 41.6-41.6c0-22.4-19.2-41.6-41.6-41.6s-41.6 19.2-41.6 41.6zM665.6 579.2c-57.6 0-105.6-48-105.6-105.6s48-105.6 105.6-105.6 105.6 48 105.6 105.6-48 105.6-105.6 105.6zM665.6 432c-22.4 0-41.6 19.2-41.6 41.6s19.2 41.6 41.6 41.6c22.4 0 41.6-19.2 41.6-41.6s-19.2-41.6-41.6-41.6z" />
<glyph unicode="&#xe922;" glyph-name="confusing" d="M512 896c-246.4 0-448-201.6-448-448s201.6-448 448-448 448 201.6 448 448-201.6 448-448 448zM512 64c-211.2 0-384 172.8-384 384s172.8 384 384 384 384-172.8 384-384-172.8-384-384-384zM512 326.4c-160 0-211.2-128-211.2-134.4-6.4-16 3.2-35.2 19.2-41.6s35.2 3.2 41.6 19.2c0 0 35.2 92.8 153.6 92.8 115.2 0 150.4-89.6 153.6-92.8 6.4-12.8 16-19.2 28.8-19.2 3.2 0 6.4 0 12.8 3.2 16 6.4 25.6 25.6 19.2 41.6-6.4 3.2-57.6 131.2-217.6 131.2zM464 473.6c0 57.6-48 105.6-105.6 105.6s-105.6-48-105.6-105.6 48-105.6 105.6-105.6 105.6 48 105.6 105.6zM316.8 473.6c0 22.4 19.2 41.6 41.6 41.6s41.6-19.2 41.6-41.6c0-22.4-19.2-41.6-41.6-41.6s-41.6 19.2-41.6 41.6zM665.6 579.2c-57.6 0-105.6-48-105.6-105.6s48-105.6 105.6-105.6 105.6 48 105.6 105.6-48 105.6-105.6 105.6zM665.6 432c-22.4 0-41.6 19.2-41.6 41.6s19.2 41.6 41.6 41.6c22.4 0 41.6-19.2 41.6-41.6s-19.2-41.6-41.6-41.6zM780.8 636.8l-192 96c-16 6.4-35.2 0-41.6-12.8-6.4-16 0-35.2 12.8-41.6l192-96c6.4-6.4 9.6-6.4 16-6.4 12.8 0 22.4 6.4 28.8 19.2s0 32-16 41.6zM268.8 579.2l192 96c16 6.4 22.4 25.6 12.8 41.6-6.4 16-25.6 22.4-41.6 12.8l-192-96c-16-6.4-22.4-25.6-12.8-41.6 6.4-9.6 16-16 28.8-16 6.4 0 9.6 0 12.8 3.2z" />
<glyph unicode="&#xe923;" glyph-name="smile" d="M512 896c-246.4 0-448-201.6-448-448s201.6-448 448-448 448 201.6 448 448-201.6 448-448 448zM512 64c-211.2 0-384 172.8-384 384s172.8 384 384 384 384-172.8 384-384-172.8-384-384-384zM745.6 368c-16 6.4-35.2-3.2-41.6-22.4 0 0-48-147.2-192-147.2s-192 140.8-192 147.2c-6.4 16-22.4 25.6-41.6 22.4-16-6.4-25.6-22.4-22.4-41.6 19.2-67.2 99.2-192 252.8-192s233.6 124.8 252.8 192c9.6 19.2 0 38.4-16 41.6zM358.4 432c57.6 0 105.6 48 105.6 105.6s-48 105.6-105.6 105.6-105.6-48-105.6-105.6 48-105.6 105.6-105.6zM358.4 579.2c22.4 0 41.6-19.2 41.6-41.6s-19.2-41.6-41.6-41.6-41.6 19.2-41.6 41.6c0 22.4 19.2 41.6 41.6 41.6zM665.6 643.2c-57.6 0-105.6-48-105.6-105.6s48-105.6 105.6-105.6 105.6 48 105.6 105.6-48 105.6-105.6 105.6zM665.6 496c-22.4 0-41.6 19.2-41.6 41.6s19.2 41.6 41.6 41.6 41.6-19.2 41.6-41.6c0-22.4-19.2-41.6-41.6-41.6z" />
<glyph unicode="&#xe924;" glyph-name="girl" d="M512 896c-246.4 0-448-201.6-448-448s201.6-448 448-448 448 201.6 448 448-201.6 448-448 448zM512 64c-211.2 0-384 172.8-384 384s172.8 384 384 384 384-172.8 384-384-172.8-384-384-384zM745.6 368c-16 6.4-35.2-3.2-41.6-22.4 0 0-48-147.2-192-147.2s-192 140.8-192 147.2c-6.4 16-22.4 25.6-41.6 22.4-16-6.4-25.6-22.4-22.4-41.6 19.2-67.2 99.2-192 252.8-192s233.6 124.8 252.8 192c9.6 19.2 0 38.4-16 41.6zM358.4 400c57.6 0 105.6 48 105.6 105.6 0 19.2-6.4 35.2-12.8 48l25.6 57.6c6.4 16 0 35.2-16 41.6s-35.2 0-41.6-16l-16-35.2c-3.2 0-6.4 3.2-9.6 3.2v25.6c0 19.2-12.8 32-32 32s-32-12.8-32-32v-25.6c0 0-3.2 0-3.2 0l-16 32c-9.6 16-28.8 25.6-44.8 16-16-6.4-22.4-25.6-16-41.6l22.4-48c-9.6-16-16-35.2-16-57.6-3.2-57.6 44.8-105.6 102.4-105.6zM358.4 464c-22.4 0-41.6 19.2-41.6 41.6s19.2 41.6 41.6 41.6 41.6-19.2 41.6-41.6-19.2-41.6-41.6-41.6zM752 652.8c-16 6.4-35.2 0-41.6-16l-12.8-25.6v16c0 19.2-12.8 32-32 32s-32-12.8-32-32v-16l-9.6 22.4c-6.4 16-25.6 22.4-41.6 16s-22.4-25.6-16-41.6l19.2-38.4c-16-19.2-22.4-41.6-22.4-64 0-57.6 48-105.6 105.6-105.6s105.6 48 105.6 105.6c0 22.4-6.4 44.8-22.4 60.8l19.2 41.6c6.4 19.2-3.2 38.4-19.2 44.8zM665.6 464c-22.4 0-41.6 19.2-41.6 41.6s19.2 41.6 41.6 41.6 41.6-19.2 41.6-41.6-19.2-41.6-41.6-41.6z" />
<glyph unicode="&#xe925;" glyph-name="building" d="M355.2 806.4h-70.4c-28.8 0-51.2-22.4-51.2-51.2v-102.4c0-28.8 22.4-51.2 51.2-51.2h67.2c28.8 0 51.2 22.4 51.2 51.2v102.4c3.2 28.8-22.4 51.2-48 51.2zM342.4 665.6h-41.6v76.8h41.6v-76.8zM547.2 806.4h-67.2c-28.8 0-51.2-22.4-51.2-51.2v-102.4c0-28.8 22.4-51.2 51.2-51.2h67.2c28.8 0 51.2 22.4 51.2 51.2v102.4c-3.2 28.8-25.6 51.2-51.2 51.2zM531.2 665.6h-41.6v76.8h41.6v-76.8zM355.2 550.4h-70.4c-28.8 0-51.2-22.4-51.2-51.2v-102.4c0-28.8 22.4-51.2 51.2-51.2h67.2c28.8 0 51.2 22.4 51.2 51.2v102.4c3.2 28.8-22.4 51.2-48 51.2zM342.4 409.6h-41.6v76.8h41.6v-76.8zM355.2 294.4h-70.4c-28.8 0-51.2-22.4-51.2-51.2v-102.4c0-28.8 22.4-51.2 51.2-51.2h67.2c28.8 0 51.2 22.4 51.2 51.2v102.4c3.2 28.8-22.4 51.2-48 51.2zM342.4 153.6h-41.6v76.8h41.6v-76.8zM547.2 550.4h-67.2c-28.8 0-51.2-22.4-51.2-51.2v-102.4c0-28.8 22.4-51.2 51.2-51.2h67.2c28.8 0 51.2 22.4 51.2 51.2v102.4c-3.2 28.8-25.6 51.2-51.2 51.2zM531.2 409.6h-41.6v76.8h41.6v-76.8zM739.2 806.4h-67.2c-28.8 0-51.2-22.4-51.2-51.2v-102.4c0-28.8 22.4-51.2 51.2-51.2h67.2c28.8 0 51.2 22.4 51.2 51.2v102.4c-3.2 28.8-25.6 51.2-51.2 51.2zM723.2 665.6h-41.6v76.8h41.6v-76.8zM739.2 550.4h-67.2c-28.8 0-51.2-22.4-51.2-51.2v-102.4c0-28.8 22.4-51.2 51.2-51.2h67.2c28.8 0 51.2 22.4 51.2 51.2v102.4c-3.2 28.8-25.6 51.2-51.2 51.2zM723.2 409.6h-41.6v76.8h41.6v-76.8zM944 32h-32v864c0 19.2-12.8 32-32 32h-736c-19.2 0-32-12.8-32-32v-864h-32c-19.2 0-32-12.8-32-32s12.8-32 32-32h864c19.2 0 32 12.8 32 32s-12.8 32-32 32zM598.4 41.6v150.4h115.2v-150.4h-115.2zM777.6 32v185.6c0 22.4-16 38.4-38.4 38.4h-166.4c-22.4 0-38.4-16-38.4-38.4v-185.6h-358.4v832h672v-832h-70.4z" />
<glyph unicode="&#xe926;" glyph-name="exit" d="M678.4 352c-19.2 0-32-12.8-32-32v-160h-105.6v608c0 12.8-9.6 25.6-22.4 32l-220.8 64h348.8v-188.8c0-19.2 12.8-32 32-32s32 12.8 32 32v220.8c0 19.2-12.8 32-32 32h-598.4c0 0-3.2 0-3.2 0-3.2 0-3.2 0-6.4 0-3.2-3.2-6.4-3.2-6.4-6.4 0 0-3.2 0-3.2 0s0 0 0 0c-3.2-3.2-6.4-6.4-9.6-9.6 0 0-3.2-3.2-3.2-3.2 0-3.2 0-6.4 0-12.8v-732.8c0-12.8 9.6-25.6 19.2-28.8l425.6-163.2c3.2 0 6.4-3.2 12.8-3.2s12.8 3.2 19.2 6.4c9.6 6.4 12.8 16 12.8 25.6v96h137.6c19.2 0 32 12.8 32 32v192c3.2 19.2-12.8 32-28.8 32zM473.6 48l-361.6 137.6v668.8l361.6-108.8v-697.6zM832 662.4c-9.6 12.8-32 16-44.8 6.4s-16-32-6.4-44.8l89.6-112h-243.2c-19.2 0-32-12.8-32-32s12.8-32 32-32h243.2l-89.6-112c-9.6-12.8-9.6-35.2 6.4-44.8 6.4-3.2 12.8-6.4 19.2-6.4 9.6 0 19.2 3.2 25.6 12.8l147.2 182.4-147.2 182.4z" />
<glyph unicode="&#xe927;" glyph-name="balloon" d="M870.4 864h-716.8c-32 0-57.6-25.6-57.6-57.6v-470.4c0-32 25.6-57.6 57.6-57.6h38.4v-214.4c0-12.8 6.4-22.4 19.2-28.8 3.2-3.2 9.6-3.2 12.8-3.2 6.4 0 16 3.2 19.2 6.4l294.4 240h329.6c32 0 57.6 25.6 57.6 57.6v470.4c0 32-25.6 57.6-54.4 57.6zM860.8 345.6h-332.8c-6.4 0-16-3.2-19.2-6.4l-252.8-208v179.2c0 19.2-12.8 32-32 32h-60.8v457.6h697.6v-454.4z" />
<glyph unicode="&#xe928;" glyph-name="bill" d="M560 432h128c19.2 0 32 12.8 32 32s-12.8 32-32 32h-128c-19.2 0-32-12.8-32-32s12.8-32 32-32zM560 272h128c19.2 0 32 12.8 32 32s-12.8 32-32 32h-128c-19.2 0-32-12.8-32-32s12.8-32 32-32zM790.4 656h-684.8c-32 0-57.6-25.6-57.6-57.6v-524.8c0-32 25.6-57.6 57.6-57.6h684.8c32 0 57.6 25.6 57.6 57.6v524.8c0 28.8-28.8 57.6-57.6 57.6zM784 80h-672v512h672v-512zM915.2 880h-681.6c-35.2 0-60.8-28.8-60.8-60.8v-102.4c0-19.2 16-35.2 35.2-35.2 0 0 0 0 0 0h700.8v-412.8c-16-3.2-25.6-16-25.6-35.2s16-35.2 35.2-35.2c35.2 0 60.8 28.8 60.8 60.8v560c-3.2 35.2-28.8 60.8-64 60.8zM240 752v60.8h665.6v-57.6h-665.6zM329.6 121.6c28.8 0 166.4 3.2 166.4 73.6 0 83.2-70.4 105.6-105.6 118.4l-22.4 6.4-12.8-16c-9.6-9.6-28.8-12.8-38.4 0l-16 16-19.2-6.4c-38.4-16-99.2-38.4-99.2-115.2 0-48 73.6-76.8 147.2-76.8zM288 243.2c28.8-16 67.2-16 96 3.2 35.2-12.8 44.8-25.6 44.8-44.8-12.8-6.4-48-19.2-99.2-19.2-44.8 0-73.6 12.8-83.2 19.2 3.2 19.2 12.8 28.8 41.6 41.6zM332.8 339.2c48 0 89.6 38.4 89.6 86.4s-41.6 86.4-89.6 86.4c-48 0-89.6-38.4-89.6-86.4 0-44.8 41.6-86.4 89.6-86.4zM332.8 451.2c12.8 0 25.6-9.6 25.6-22.4s-12.8-22.4-25.6-22.4-25.6 9.6-25.6 22.4 12.8 22.4 25.6 22.4z" />
<glyph unicode="&#xe929;" glyph-name="id" d="M860.8 934.4h-697.6c-35.2 0-64-28.8-64-64v-848c0-35.2 28.8-64 64-64h697.6c35.2 0 64 28.8 64 64v848c0 35.2-28.8 64-64 64zM860.8 25.6c0 0 0 0 0 0h-697.6v848h697.6v-848zM252.8 137.6h515.2c19.2 0 32 12.8 32 32s-12.8 32-32 32h-515.2c-19.2 0-32-12.8-32-32s16-32 32-32zM499.2 307.2c92.8 0 201.6 22.4 201.6 86.4 0 92.8-67.2 121.6-131.2 140.8l-19.2 6.4-12.8-16c-16-16-44.8-19.2-60.8-3.2l-16 16-19.2-6.4c-51.2-19.2-118.4-44.8-118.4-137.6 0-54.4 92.8-86.4 176-86.4zM448 464c35.2-22.4 86.4-22.4 121.6 3.2 51.2-19.2 67.2-35.2 67.2-70.4-12.8-9.6-64-25.6-137.6-25.6-60.8 0-102.4 19.2-115.2 28.8 3.2 32 19.2 48 64 64zM505.6 553.6c57.6 0 105.6 44.8 105.6 102.4s-48 102.4-105.6 102.4-105.6-44.8-105.6-102.4 48-102.4 105.6-102.4zM505.6 694.4c22.4 0 41.6-16 41.6-38.4s-19.2-38.4-41.6-38.4c-22.4 0-41.6 16-41.6 38.4s19.2 38.4 41.6 38.4z" />
<glyph unicode="&#xe92a;" glyph-name="calendar2" d="M921.6 828.8h-102.4c-19.2 0-32-12.8-32-32s12.8-32 32-32h70.4v-115.2h-755.2v115.2h76.8c19.2 0 32 12.8 32 32s-12.8 32-32 32h-108.8c-19.2 0-32-12.8-32-32v-745.6c0-19.2 12.8-32 32-32h816c19.2 0 32 12.8 32 32v745.6c3.2 19.2-12.8 32-28.8 32zM134.4 83.2v502.4h752v-505.6h-752zM412.8 764.8h230.4c19.2 0 32 12.8 32 32s-12.8 32-32 32h-230.4c-19.2 0-32-12.8-32-32s12.8-32 32-32zM320 716.8c19.2 0 32 12.8 32 32v96c0 19.2-12.8 32-32 32s-32-12.8-32-32v-96c0-16 12.8-32 32-32zM736 716.8c19.2 0 32 12.8 32 32v96c0 19.2-12.8 32-32 32s-32-12.8-32-32v-96c0-16 12.8-32 32-32zM352 492.8h-96c-19.2 0-32-12.8-32-32v-128c0-19.2 12.8-32 32-32s32 12.8 32 32v96h64c19.2 0 32 12.8 32 32s-12.8 32-32 32zM576 236.8h-64v96c0 19.2-12.8 32-32 32s-32-12.8-32-32v-128c0-19.2 12.8-32 32-32h96c19.2 0 32 12.8 32 32s-12.8 32-32 32zM768 492.8h-96c-19.2 0-32-12.8-32-32v-128c0-19.2 12.8-32 32-32s32 12.8 32 32v96h64c19.2 0 32 12.8 32 32s-12.8 32-32 32z" />
<glyph unicode="&#xe92b;" glyph-name="robot" d="M832 208h-643.2c-9.6 0-22.4-6.4-28.8-16s-6.4-22.4 0-32l80-160c6.4-9.6 16-19.2 28.8-19.2h483.2c12.8 0 22.4 6.4 28.8 19.2l80 160c6.4 9.6 3.2 22.4 0 32s-16 16-28.8 16zM732.8 48h-444.8l-48 96h540.8l-48-96zM940.8 912c-19.2 0-32-12.8-32-32v-320h-25.6v128c0 12.8-9.6 25.6-19.2 28.8l-339.2 128c-6.4 3.2-16 3.2-22.4 0l-342.4-128c-12.8-3.2-19.2-16-19.2-28.8v-128h-57.6c-19.2 0-32-12.8-32-32v-160c0-19.2 12.8-32 32-32h57.6v-64c0-19.2 12.8-32 32-32h678.4c19.2 0 32 12.8 32 32v64h57.6c19.2 0 32 12.8 32 32v512c0 19.2-16 32-32 32zM656 560c25.6 0 48-22.4 48-48s-22.4-48-48-48-48 22.4-48 48 19.2 48 48 48zM115.2 400v96h25.6v-96h-25.6zM368 464c-25.6 0-48 22.4-48 48s22.4 48 48 48 48-22.4 48-48-22.4-48-48-48zM819.2 304h-422.4v96c0 0 0 3.2 0 3.2 48 12.8 83.2 57.6 83.2 108.8 0 60.8-51.2 112-112 112s-112-51.2-112-112c0-51.2 32-92.8 80-105.6 0-3.2 0-3.2 0-6.4v-96h-128v361.6l304 115.2 108.8-41.6v-115.2c0-3.2 0-3.2 0-6.4-44.8-12.8-76.8-54.4-76.8-105.6 0-60.8 51.2-112 112-112s112 51.2 112 112c0 51.2-35.2 96-83.2 108.8 0 0 0 3.2 0 3.2v92.8l134.4-51.2v-361.6zM883.2 496h25.6v-96h-25.6v96z" />
<glyph unicode="&#xe92c;" glyph-name="dollar" d="M790.4 656h-684.8c-32 0-57.6-25.6-57.6-57.6v-524.8c0-32 25.6-57.6 57.6-57.6h684.8c32 0 57.6 25.6 57.6 57.6v524.8c0 28.8-28.8 57.6-57.6 57.6zM784 80h-672v512h672v-512zM915.2 880h-681.6c-35.2 0-60.8-28.8-60.8-60.8v-102.4c0-19.2 16-35.2 35.2-35.2s35.2 16 35.2 35.2v96h665.6v-540.8c-16-3.2-25.6-16-25.6-35.2s16-35.2 35.2-35.2c35.2 0 60.8 28.8 60.8 60.8v556.8c-3.2 35.2-28.8 60.8-64 60.8zM297.6 121.6c28.8 0 166.4 3.2 166.4 73.6 0 83.2-70.4 105.6-105.6 118.4l-22.4 6.4-12.8-16c-9.6-9.6-28.8-12.8-38.4 0l-16 16-19.2-6.4c-38.4-16-99.2-38.4-99.2-115.2 0-48 73.6-76.8 147.2-76.8zM256 243.2c28.8-16 67.2-16 96 3.2 35.2-12.8 44.8-25.6 44.8-44.8-12.8-6.4-48-19.2-99.2-19.2-44.8 0-73.6 12.8-83.2 19.2 3.2 19.2 12.8 28.8 41.6 41.6zM300.8 339.2c48 0 89.6 38.4 89.6 86.4s-41.6 86.4-89.6 86.4-89.6-38.4-89.6-86.4c0-44.8 41.6-86.4 89.6-86.4zM300.8 451.2c12.8 0 25.6-9.6 25.6-22.4s-12.8-22.4-25.6-22.4-25.6 9.6-25.6 22.4 12.8 22.4 25.6 22.4zM540.8 243.2l-38.4-38.4c12.8-12.8 28.8-22.4 44.8-28.8s32-9.6 51.2-9.6v-19.2h25.6v19.2c22.4 3.2 41.6 9.6 57.6 22.4 19.2 16 32 35.2 32 57.6 0 28.8-9.6 51.2-28.8 64s-38.4 19.2-60.8 22.4v60.8c19.2 0 38.4-9.6 48-22.4l38.4 38.4c-12.8 12.8-25.6 22.4-41.6 28.8-12.8 6.4-25.6 6.4-44.8 9.6v19.2h-25.6v-19.2c-19.2-3.2-35.2-9.6-54.4-22.4-22.4-16-32-35.2-32-60.8 0-28.8 9.6-48 28.8-57.6s38.4-16 57.6-19.2v-67.2c-25.6 0-44.8 9.6-57.6 22.4zM627.2 281.6c12.8-3.2 19.2-9.6 25.6-16 6.4-9.6 6.4-22.4 0-32-3.2-6.4-12.8-12.8-25.6-12.8v60.8zM579.2 352c-6.4 6.4-6.4 16 0 25.6 3.2 6.4 9.6 9.6 19.2 12.8v-51.2c-6.4 3.2-16 6.4-19.2 12.8z" />
<glyph unicode="&#xe92d;" glyph-name="plane" d="M963.2 892.8c0 0 0 3.2 0 0 0 3.2 0 6.4 0 6.4s0 3.2-3.2 3.2c0 0 0 3.2 0 3.2s0 0 0 0 0 0 0 3.2c0 0 0 3.2 0 3.2s0 0-3.2 0c0 0 0 3.2-3.2 3.2 0 0 0 0 0 0s0 0-3.2 0c0 0-3.2 3.2-3.2 3.2s0 0-3.2 0c0 0 0 0 0 0s-3.2 0-3.2 0c0 0-3.2 0-3.2 0s-3.2 0-3.2 0c0 0-3.2 0-3.2 0s-3.2 0-3.2 0c0 0-3.2 0-3.2 0s-3.2 0-3.2-3.2c0 0 0 0-3.2 0l-841.6-528c-9.6-6.4-16-19.2-16-28.8 0-12.8 9.6-22.4 19.2-25.6l233.6-96 118.4-240c6.4-9.6 16-19.2 28.8-19.2 3.2 0 6.4 0 6.4 0 12.8 3.2 25.6 16 25.6 32 0 0 0 0 0 0l83.2 128 195.2-108.8c6.4-3.2 9.6-3.2 16-3.2 3.2 0 9.6 0 12.8 3.2 9.6 3.2 16 12.8 19.2 22.4l140.8 838.4c0 0 0 0 0 3.2 3.2-3.2 3.2-3.2 3.2 0zM736 729.6l-291.2-310.4-115.2-124.8-169.6 70.4 576 364.8zM377.6 252.8l9.6 9.6 230.4 246.4-182.4-256c-3.2-6.4-6.4-16-6.4-22.4-3.2-3.2-3.2-9.6-3.2-16v-67.2l-48 105.6zM492.8 118.4v64l32-19.2-32-44.8zM764.8 102.4l-249.6 140.8 358.4 512-108.8-652.8z" />
<glyph unicode="&#xe92e;" glyph-name="trophy" d="M825.6 803.2v96h-627.2v-96h-163.2l12.8-41.6c3.2-12.8 89.6-288 262.4-304 12.8-9.6 22.4-22.4 35.2-32l22.4-35.2c19.2-28.8 32-67.2 32-108.8 0-38.4-9.6-76.8-32-108.8l-3.2-3.2h-25.6c-54.4 0-99.2-57.6-99.2-131.2v-41.6h540.8v41.6c0 73.6-41.6 131.2-99.2 131.2h-25.6l-3.2 3.2c-19.2 28.8-32 67.2-32 108.8 0 38.4 9.6 76.8 32 108.8l22.4 35.2c12.8 9.6 25.6 19.2 38.4 32 169.6 19.2 252.8 291.2 259.2 304l12.8 41.6h-160zM720 60.8h-412.8c6.4 28.8 22.4 44.8 32 44.8h345.6c12.8 3.2 28.8-16 35.2-44.8zM262.4 732.8h502.4c0 0 0-3.2 0-3.2 0-163.2-112-294.4-252.8-294.4-137.6 0-252.8 131.2-252.8 294.4 3.2 0 3.2 3.2 3.2 3.2zM262.4 835.2h499.2v-19.2l-499.2-6.4v25.6zM121.6 739.2h76.8c0-3.2 0-6.4 0-9.6 0-60.8 12.8-118.4 38.4-169.6-51.2 44.8-92.8 121.6-115.2 179.2zM579.2 188.8h-131.2c6.4 16 9.6 28.8 12.8 44.8h108.8c0-12.8 6.4-28.8 9.6-44.8zM563.2 297.6h-102.4c0 22.4-3.2 44.8-9.6 64 41.6-9.6 83.2-9.6 124.8 0-6.4-19.2-9.6-41.6-12.8-64zM793.6 563.2c22.4 48 35.2 105.6 35.2 166.4 0 3.2 0 6.4 0 9.6h73.6c-22.4-54.4-60.8-128-108.8-176z" />
<glyph unicode="&#xe92f;" glyph-name="iphone" d="M832 934.4h-640c-35.2 0-64-28.8-64-64v-848c0-35.2 28.8-64 64-64h640c35.2 0 64 28.8 64 64v851.2c0 35.2-28.8 60.8-64 60.8zM832 25.6h-640v844.8h640v-844.8zM278.4 192h470.4c28.8 0 54.4 25.6 54.4 54.4v547.2c0 28.8-25.6 54.4-54.4 54.4h-470.4c-28.8 0-54.4-25.6-54.4-54.4v-547.2c0-28.8 25.6-54.4 54.4-54.4zM288 784h448v-528h-448v528zM515.2 179.2c-32 3.2-64-22.4-67.2-57.6 0-16 3.2-32 16-44.8 9.6-12.8 25.6-19.2 41.6-22.4 0 0 3.2 0 3.2 0 32 0 57.6 25.6 60.8 57.6 0 16-3.2 32-16 44.8-6.4 12.8-19.2 19.2-38.4 22.4zM515.2 118.4c0 0 0 0 0 0 0-3.2-3.2-3.2 0 0-3.2-3.2-6.4 0-6.4 0s3.2 0 6.4 0c-3.2 0-3.2 0 0 0-3.2 0 0 0 0 0v0zM406.4 726.4c-12.8 12.8-32 12.8-44.8 0s-12.8-32 0-44.8l256-256c6.4-6.4 16-9.6 22.4-9.6s16 3.2 22.4 9.6c12.8 12.8 12.8 32 0 44.8l-256 256zM566.4 726.4c-12.8 12.8-32 12.8-44.8 0s-12.8-32 0-44.8l96-96c6.4-6.4 16-9.6 22.4-9.6s16 3.2 22.4 9.6c12.8 12.8 12.8 32 0 44.8l-96 96z" />
<glyph unicode="&#xe930;" glyph-name="cloud" d="M873.6 483.2c3.2 9.6 3.2 19.2 3.2 28.8 0 118.4-140.8 208-320 208s-320-92.8-320-208c0-3.2 0-9.6 0-12.8h-12.8c-89.6 0-163.2-73.6-163.2-163.2s73.6-163.2 163.2-163.2h576c89.6 0 163.2 73.6 163.2 163.2 0 64-35.2 121.6-89.6 147.2zM800 236.8h-576c-54.4 0-99.2 44.8-99.2 99.2s44.8 99.2 99.2 99.2h176c19.2 0 32 12.8 32 32s-12.8 32-32 32h-99.2c0 3.2 0 9.6 0 12.8 0 80 118.4 144 256 144s256-67.2 256-144c0-12.8-3.2-22.4-9.6-35.2l-16-35.2 38.4-9.6c44.8-12.8 76.8-51.2 76.8-96-3.2-54.4-48-99.2-102.4-99.2z" />
<glyph unicode="&#xe931;" glyph-name="arrow-l" d="M924.8 480h-726.4l320 288c12.8 12.8 12.8 32 3.2 44.8-12.8 12.8-32 12.8-44.8 3.2l-409.6-368 412.8-368c6.4-6.4 12.8-9.6 22.4-9.6s16 3.2 22.4 9.6c12.8 12.8 9.6 32-3.2 44.8l-320 288h723.2c19.2 0 32 12.8 32 32s-16 35.2-32 35.2zM163.2 448v0c3.2 0 0 0 0 0s3.2 0 0 0v0z" />
<glyph unicode="&#xe932;" glyph-name="arrow-d" d="M876.8 460.8c-12.8 12.8-32 9.6-44.8-3.2l-288-320v723.2c0 19.2-12.8 32-32 32s-32-12.8-32-32v-723.2l-288 320c-12.8 12.8-32 12.8-44.8 3.2-12.8-12.8-12.8-32-3.2-44.8l368-412.8 368 412.8c12.8 12.8 9.6 32-3.2 44.8zM512 102.4c0 0 0-3.2 0 0 0-3.2 0 0 0 0v0 0z" />
<glyph unicode="&#xe933;" glyph-name="arrorw-up" d="M880 480l-368 412.8-368-412.8c-12.8-12.8-9.6-32 3.2-44.8s32-9.6 44.8 3.2l288 320v-723.2c0-19.2 12.8-32 32-32s32 12.8 32 32v726.4l288-320c6.4-6.4 16-9.6 22.4-9.6s16 3.2 22.4 9.6c12.8 6.4 16 25.6 3.2 38.4zM512 796.8c0 0 0-3.2 0 0v0 0c0-3.2 0 0 0 0z" />
<glyph unicode="&#xe934;" glyph-name="ticket" d="M630.4 348.8c-19.2 0-32-12.8-32-32v-96c0-19.2 12.8-32 32-32s32 12.8 32 32v96c0 19.2-12.8 32-32 32zM496 364.8h-224c-19.2 0-32-12.8-32-32s12.8-32 32-32h224c19.2 0 32 12.8 32 32s-12.8 32-32 32zM368 236.8h-96c-19.2 0-32-12.8-32-32s12.8-32 32-32h96c19.2 0 32 12.8 32 32s-12.8 32-32 32zM640 582.4c6.4 0 9.6 0 16 3.2 16 9.6 22.4 28.8 12.8 41.6l-19.2 44.8c-9.6 16-28.8 22.4-41.6 12.8-16-9.6-22.4-28.8-12.8-41.6l22.4-41.6c0-12.8 12.8-19.2 22.4-19.2zM915.2 432c-35.2 6.4-60.8 32-67.2 67.2-3.2 16-16 28.8-32 28.8h-611.2c-16 0-28.8-12.8-32-28.8-6.4-35.2-32-60.8-67.2-67.2-16-3.2-28.8-16-28.8-32v-259.2c0-16 12.8-28.8 28.8-32 35.2-6.4 60.8-32 67.2-67.2 3.2-16 16-28.8 32-28.8h611.2c16 0 28.8 12.8 32 28.8 6.4 35.2 32 60.8 67.2 67.2 16 3.2 28.8 16 28.8 32v259.2c0 16-12.8 28.8-28.8 32zM880 166.4c-41.6-16-73.6-48-86.4-86.4h-128v48c0 19.2-12.8 32-32 32s-32-12.8-32-32v-48h-371.2c-16 41.6-48 73.6-86.4 86.4v208c41.6 16 73.6 48 86.4 86.4h368v-48c0-19.2 12.8-32 32-32s32 12.8 32 32v48h128c16-41.6 48-73.6 86.4-86.4v-208zM960 572.8l-99.2 240c-6.4 16-22.4 22.4-38.4 19.2-35.2-9.6-70.4 6.4-86.4 35.2-9.6 12.8-25.6 19.2-38.4 12.8l-566.4-233.6c-12.8-6.4-22.4-22.4-19.2-38.4 9.6-35.2-6.4-70.4-35.2-86.4-16-9.6-19.2-28.8-12.8-44.8 6.4-9.6 16-16 28.8-16 6.4 0 12.8 0 16 3.2 44.8 28.8 73.6 80 70.4 131.2l358.4 150.4 16-32c6.4-9.6 16-16 28.8-16 6.4 0 9.6 0 16 3.2 16 9.6 22.4 28.8 12.8 41.6l-12.8 25.6 99.2 41.6c28.8-32 70.4-48 115.2-48l80-192c-9.6-9.6-16-19.2-25.6-28.8-9.6-16-6.4-35.2 9.6-44.8s35.2-6.4 44.8 9.6c6.4 9.6 16 19.2 25.6 25.6 12.8 9.6 19.2 25.6 12.8 41.6z" />
<glyph unicode="&#xe935;" glyph-name="moon" d="M864 256c-115.2 0-208 92.8-208 208 0 108.8 86.4 198.4 195.2 208l60.8 3.2-38.4 48c-83.2 105.6-208 163.2-342.4 163.2-243.2 3.2-441.6-195.2-441.6-438.4s198.4-441.6 441.6-441.6c150.4 0 288 76.8 371.2 201.6l35.2 51.2-73.6-3.2zM531.2 70.4c-208 0-377.6 169.6-377.6 377.6s169.6 377.6 377.6 377.6c96 0 185.6-35.2 256-99.2-112-35.2-192-137.6-192-259.2 0-131.2 96-243.2 220.8-265.6-73.6-83.2-176-131.2-284.8-131.2z" />
<glyph unicode="&#xe936;" glyph-name="sun" d="M128 448c0 51.2 9.6 99.2 28.8 147.2 6.4 16 0 35.2-16 41.6s-35.2 0-41.6-16c-22.4-57.6-35.2-115.2-35.2-172.8v0c0-19.2 12.8-32 32-32s32 12.8 32 32zM867.2 595.2c6.4-12.8 16-19.2 28.8-19.2 3.2 0 9.6 0 12.8 3.2 16 6.4 25.6 25.6 16 41.6-22.4 54.4-54.4 102.4-96 144-12.8 12.8-32 12.8-44.8 0s-12.8-32 0-44.8c35.2-35.2 64-76.8 83.2-124.8zM156.8 300.8c-6.4 16-25.6 25.6-41.6 16s-25.6-25.6-16-41.6c22.4-54.4 54.4-102.4 96-144 6.4-6.4 16-9.6 22.4-9.6s16 3.2 22.4 9.6c12.8 12.8 12.8 32 0 44.8-35.2 35.2-64 76.8-83.2 124.8zM512 832c51.2 0 99.2-9.6 147.2-28.8 3.2-3.2 6.4-3.2 9.6-3.2 12.8 0 25.6 6.4 28.8 19.2 6.4 16 0 35.2-16 41.6-54.4 22.4-112 35.2-169.6 35.2v0c-19.2 0-32-12.8-32-32s12.8-32 32-32zM217.6 710.4c9.6 0 16 3.2 22.4 9.6 35.2 35.2 76.8 64 124.8 83.2 16 6.4 25.6 25.6 16 41.6s-25.6 22.4-41.6 16c-54.4-22.4-102.4-54.4-144-96-12.8-12.8-12.8-32 0-44.8 6.4-6.4 12.8-9.6 22.4-9.6zM928 480c-19.2 0-32-16-32-32 0-51.2-9.6-99.2-28.8-147.2-6.4-16 0-35.2 16-41.6 3.2-3.2 9.6-3.2 12.8-3.2 12.8 0 25.6 6.4 28.8 19.2 22.4 54.4 32 112 32 169.6v0c3.2 22.4-9.6 35.2-28.8 35.2zM784 176c-35.2-35.2-76.8-64-124.8-83.2-16-6.4-22.4-25.6-16-41.6 6.4-12.8 16-19.2 28.8-19.2 3.2 0 9.6 0 12.8 3.2 54.4 22.4 102.4 54.4 144 99.2 12.8 12.8 12.8 32 0 44.8-12.8 9.6-32 9.6-44.8-3.2zM512 64c-51.2 0-99.2 9.6-147.2 28.8-16 6.4-35.2 0-41.6-16s0-35.2 16-41.6c54.4-22.4 112-35.2 172.8-35.2h3.2c19.2 0 32 12.8 32 32s-16 32-35.2 32zM512 128c153.6 0 288 108.8 313.6 262.4 32 172.8-86.4 339.2-259.2 371.2s-339.2-86.4-371.2-259.2c-32-172.8 86.4-339.2 259.2-371.2 19.2-3.2 38.4-3.2 57.6-3.2zM259.2 492.8c22.4 124.8 131.2 211.2 252.8 211.2 16 0 28.8 0 44.8-3.2 137.6-25.6 230.4-156.8 208-297.6-25.6-137.6-156.8-230.4-297.6-208-137.6 25.6-233.6 160-208 297.6z" />
<glyph unicode="&#xe937;" glyph-name="rain" d="M873.6 665.6c3.2 9.6 3.2 19.2 3.2 28.8 0 118.4-140.8 208-320 208s-320-92.8-320-208c0-3.2 0-9.6 0-12.8h-12.8c-89.6 0-163.2-73.6-163.2-163.2s73.6-163.2 163.2-163.2h576c89.6 0 163.2 73.6 163.2 163.2 0 64-35.2 121.6-89.6 147.2zM800 419.2h-576c-54.4 0-99.2 44.8-99.2 99.2s44.8 99.2 99.2 99.2h176c19.2 0 32 12.8 32 32s-12.8 32-32 32h-99.2c0 3.2 0 9.6 0 12.8 0 80 118.4 144 256 144s256-67.2 256-144c0-12.8-3.2-22.4-9.6-35.2l-16-35.2 38.4-9.6c44.8-12.8 76.8-51.2 76.8-96-3.2-54.4-48-99.2-102.4-99.2zM332.8 307.2c-16 6.4-35.2-3.2-41.6-19.2l-96-256c-6.4-16 3.2-35.2 19.2-41.6 3.2 0 6.4-3.2 12.8-3.2 12.8 0 25.6 6.4 28.8 19.2l96 256c3.2 22.4-3.2 38.4-19.2 44.8zM588.8 307.2c-16 6.4-35.2-3.2-41.6-19.2l-96-256c-6.4-16 3.2-35.2 19.2-41.6 3.2 0 6.4-3.2 12.8-3.2 12.8 0 25.6 6.4 28.8 19.2l96 256c3.2 22.4-3.2 38.4-19.2 44.8zM812.8 307.2c-16 6.4-35.2-3.2-41.6-19.2l-96-256c-6.4-16 3.2-35.2 19.2-41.6 3.2 0 6.4-3.2 12.8-3.2 12.8 0 25.6 6.4 28.8 19.2l96 256c3.2 22.4-3.2 38.4-19.2 44.8z" />
<glyph unicode="&#xe938;" glyph-name="thunder" d="M873.6 649.6c3.2 9.6 3.2 19.2 3.2 28.8 0 118.4-140.8 208-320 208s-320-92.8-320-208c0-3.2 0-9.6 0-12.8h-12.8c-89.6 0-163.2-73.6-163.2-163.2s73.6-163.2 163.2-163.2h576c89.6 0 163.2 73.6 163.2 163.2 0 64-35.2 121.6-89.6 147.2zM800 403.2h-576c-54.4 0-99.2 44.8-99.2 99.2s44.8 99.2 99.2 99.2h176c19.2 0 32 12.8 32 32s-12.8 32-32 32h-99.2c0 3.2 0 9.6 0 12.8 0 80 118.4 144 256 144s256-67.2 256-144c0-12.8-3.2-22.4-9.6-35.2l-16-35.2 38.4-9.6c44.8-12.8 76.8-51.2 76.8-96-3.2-54.4-48-99.2-102.4-99.2zM332.8 163.2l-89.6 44.8 32 32c12.8 12.8 12.8 32 0 44.8s-32 12.8-44.8 0l-64-64c-3.2-6.4-6.4-16-6.4-28.8s9.6-19.2 16-22.4l89.6-44.8-64-64c-12.8-12.8-12.8-32 0-44.8 6.4-6.4 16-9.6 22.4-9.6s16 3.2 22.4 9.6l96 96c6.4 6.4 9.6 16 9.6 28.8s-9.6 19.2-19.2 22.4zM588.8 163.2l-89.6 44.8 32 32c12.8 12.8 12.8 32 0 44.8s-32 12.8-44.8 0l-64-64c-3.2-6.4-6.4-16-6.4-28.8s9.6-19.2 16-22.4l89.6-44.8-64-64c-12.8-12.8-12.8-32 0-44.8 6.4-6.4 16-9.6 22.4-9.6s16 3.2 22.4 9.6l96 96c6.4 6.4 9.6 16 9.6 28.8s-9.6 19.2-19.2 22.4zM844.8 163.2l-89.6 44.8 32 32c12.8 12.8 12.8 32 0 44.8s-32 12.8-44.8 0l-64-64c-3.2-6.4-6.4-16-6.4-28.8s9.6-19.2 16-22.4l89.6-44.8-64-64c-12.8-12.8-12.8-32 0-44.8 6.4-6.4 16-9.6 22.4-9.6s16 3.2 22.4 9.6l96 96c6.4 6.4 9.6 16 9.6 28.8s-9.6 19.2-19.2 22.4z" />
<glyph unicode="&#xe939;" glyph-name="c-up" d="M572.8 540.8c-6.4 9.6-16 19.2-28.8 19.2s-25.6-6.4-28.8-19.2l-220.8-182.4c-12.8-12.8-16-32-3.2-44.8 9.6-12.8 32-16 44.8-3.2l176 147.2v-422.4c0-19.2 12.8-32 32-32s32 12.8 32 32v422.4l176-147.2c6.4-6.4 12.8-6.4 19.2-6.4 9.6 0 19.2 3.2 25.6 12.8 12.8 12.8 9.6 35.2-3.2 44.8l-220.8 179.2zM873.6 652.8c3.2 9.6 3.2 19.2 3.2 28.8 0 118.4-140.8 208-320 208s-320-89.6-320-204.8c0-3.2 0-9.6 0-12.8h-12.8c-89.6 0-163.2-73.6-163.2-163.2 0-67.2 38.4-124.8 99.2-150.4 6.4-3.2 9.6-6.4 12.8-6.4 12.8 0 25.6 6.4 28.8 19.2 6.4 16 0 35.2-16 41.6-38.4 16-60.8 51.2-60.8 92.8 0 57.6 44.8 102.4 99.2 102.4h176c19.2 0 32 12.8 32 32s-12.8 32-32 32h-99.2c0 3.2 0 9.6 0 12.8 0 80 118.4 144 256 144s256-67.2 256-144c0-12.8-3.2-22.4-9.6-35.2-3.2-9.6-3.2-19.2 0-25.6 3.2-9.6 12.8-16 22.4-16 44.8-12.8 76.8-51.2 76.8-96 0-32-12.8-60.8-38.4-80-12.8-9.6-16-32-6.4-44.8s32-16 44.8-6.4c41.6 32 64 80 64 131.2-3.2 57.6-38.4 115.2-92.8 140.8z" />
<glyph unicode="&#xe93a;" glyph-name="c-down" d="M720 252.8l-176-144v419.2c0 19.2-12.8 32-32 32s-32-12.8-32-32v-422.4l-176 147.2c-12.8 12.8-35.2 9.6-44.8-3.2-12.8-12.8-9.6-35.2 3.2-44.8l220.8-182.4c6.4-9.6 16-19.2 28.8-19.2s25.6 6.4 28.8 19.2l220.8 182.4c12.8 12.8 16 32 3.2 44.8-9.6 12.8-32 16-44.8 3.2zM873.6 652.8c3.2 9.6 3.2 19.2 3.2 28.8 0 118.4-140.8 208-320 208s-320-89.6-320-204.8c0-3.2 0-9.6 0-12.8h-12.8c-89.6 0-163.2-73.6-163.2-163.2s73.6-163.2 163.2-163.2h112c19.2 0 32 12.8 32 32s-12.8 32-32 32h-112c-54.4 0-99.2 44.8-99.2 99.2s44.8 99.2 99.2 99.2h176c19.2 0 32 12.8 32 32s-12.8 32-32 32h-99.2c0 3.2 0 9.6 0 12.8 0 80 118.4 144 256 144s256-67.2 256-144c0-12.8-3.2-22.4-9.6-35.2-3.2-9.6-3.2-19.2 0-25.6 3.2-9.6 12.8-16 22.4-16 44.8-12.8 76.8-51.2 76.8-96 0-54.4-44.8-99.2-99.2-99.2h-128c-19.2 0-32-12.8-32-32s12.8-32 32-32h128c89.6 0 163.2 73.6 163.2 163.2-3.2 57.6-38.4 115.2-92.8 140.8z" />
<glyph unicode="&#xe93b;" glyph-name="arrow-r" d="M544 816c-12.8 12.8-32 9.6-44.8-3.2s-9.6-32 3.2-44.8l320-288h-723.2c-19.2 0-32-12.8-32-32s12.8-32 32-32h723.2l-320-288c-12.8-12.8-12.8-32-3.2-44.8 6.4-6.4 16-9.6 22.4-9.6s16 3.2 22.4 9.6l412.8 364.8-412.8 368zM857.6 448v0 0c0 0 3.2 0 0 0 3.2 0 0 0 0 0z" />
<glyph unicode="&#xe93c;" glyph-name="enter" d="M937.6 822.4c0 19.2-12.8 32-32 32s-32-12.8-32-32v-521.6l-665.6-3.2 172.8 153.6c12.8 12.8 12.8 32 3.2 44.8-12.8 12.8-32 12.8-44.8 3.2l-252.8-224 252.8-224c6.4-6.4 12.8-9.6 22.4-9.6s16 3.2 22.4 9.6c12.8 12.8 9.6 32-3.2 44.8l-153.6 137.6 710.4 6.4v582.4z" />
<glyph unicode="&#xe93d;" glyph-name="backspace" d="M928 704h-544c-6.4 0-12.8-3.2-19.2-6.4l-288-224c-9.6-6.4-12.8-16-12.8-25.6s3.2-19.2 12.8-25.6l288-224c6.4-3.2 12.8-6.4 19.2-6.4h544c19.2 0 32 12.8 32 32v448c0 19.2-12.8 32-32 32zM896 256h-502.4l-246.4 192 246.4 192h502.4v-384zM502.4 310.4c6.4-6.4 16-9.6 22.4-9.6s16 3.2 22.4 9.6l92.8 92.8 92.8-92.8c6.4-6.4 16-9.6 22.4-9.6s16 3.2 22.4 9.6c12.8 12.8 12.8 32 0 44.8l-92.8 92.8 92.8 92.8c12.8 12.8 12.8 32 0 44.8s-32 12.8-44.8 0l-92.8-92.8-92.8 92.8c-12.8 12.8-32 12.8-44.8 0s-12.8-32 0-44.8l92.8-92.8-92.8-92.8c-12.8-12.8-12.8-32 0-44.8z" />
<glyph unicode="&#xe93e;" glyph-name="x" d="M556.8 448l326.4 326.4c12.8 12.8 12.8 32 0 44.8s-32 12.8-44.8 0l-326.4-326.4-326.4 326.4c-9.6 12.8-32 12.8-44.8 0s-12.8-32 0-44.8l326.4-326.4-326.4-326.4c-12.8-12.8-12.8-32 0-44.8 6.4-6.4 16-9.6 22.4-9.6s16 3.2 22.4 9.6l326.4 326.4 326.4-326.4c6.4-6.4 16-9.6 22.4-9.6s16 3.2 22.4 9.6c12.8 12.8 12.8 32 0 44.8l-326.4 326.4z" />
<glyph unicode="&#xe93f;" glyph-name="map" d="M617.6 656c0 57.6-48 105.6-105.6 105.6s-105.6-48-105.6-105.6 48-105.6 105.6-105.6 105.6 48 105.6 105.6zM470.4 656c0 22.4 19.2 41.6 41.6 41.6s41.6-19.2 41.6-41.6-19.2-41.6-41.6-41.6-41.6 19.2-41.6 41.6zM512 208c70.4 0 208 377.6 208 464 0 115.2-92.8 208-208 208s-208-92.8-208-208c0-54.4 118.4-464 208-464zM512 816c80 0 144-64 144-144 0-86.4-102.4-323.2-147.2-390.4-44.8 67.2-140.8 323.2-140.8 390.4 0 80 64 144 144 144zM944 339.2c-3.2 16-16 28.8-32 28.8h-192c-19.2 0-32-12.8-32-32s12.8-32 32-32h163.2l25.6-224h-793.6l25.6 224h185.6c19.2 0 32 12.8 32 32s-12.8 32-32 32h-214.4c-16 0-28.8-12.8-32-28.8l-32-288c0-9.6 3.2-19.2 6.4-25.6 6.4-6.4 16-9.6 22.4-9.6h864c9.6 0 19.2 3.2 22.4 9.6 6.4 6.4 9.6 16 6.4 25.6l-25.6 288zM320 208h-128c-19.2 0-32-12.8-32-32s12.8-32 32-32h128c19.2 0 32 12.8 32 32s-12.8 32-32 32zM672 144h128c19.2 0 32 12.8 32 32s-12.8 32-32 32h-128c-19.2 0-32-12.8-32-32s12.8-32 32-32z" />
<glyph unicode="&#xe940;" glyph-name="dots" d="M512 553.6c-57.6 0-105.6-48-105.6-105.6s48-105.6 105.6-105.6 105.6 48 105.6 105.6-48 105.6-105.6 105.6zM512 406.4c-22.4 0-41.6 19.2-41.6 41.6s19.2 41.6 41.6 41.6 41.6-19.2 41.6-41.6-19.2-41.6-41.6-41.6zM208 553.6c-57.6 0-105.6-48-105.6-105.6s48-105.6 105.6-105.6 105.6 48 105.6 105.6-48 105.6-105.6 105.6zM208 406.4c-22.4 0-41.6 19.2-41.6 41.6s19.2 41.6 41.6 41.6 41.6-19.2 41.6-41.6-19.2-41.6-41.6-41.6zM816 553.6c-57.6 0-105.6-48-105.6-105.6s48-105.6 105.6-105.6 105.6 48 105.6 105.6-48 105.6-105.6 105.6zM816 406.4c-22.4 0-41.6 19.2-41.6 41.6s19.2 41.6 41.6 41.6 41.6-19.2 41.6-41.6-19.2-41.6-41.6-41.6z" />
<glyph unicode="&#xe941;" glyph-name="refresh" d="M716.8 640c-3.2-16 9.6-32 28.8-35.2l163.2-22.4c0 0 3.2 0 3.2 0 6.4 0 16 3.2 19.2 6.4 6.4 6.4 9.6 12.8 12.8 22.4l16 166.4c0 19.2-12.8 32-28.8 35.2-19.2 0-32-12.8-35.2-28.8l-6.4-89.6c-83.2 124.8-224 201.6-377.6 201.6-246.4 0-448-201.6-448-448s201.6-448 448-448c192 0 364.8 121.6 425.6 307.2 6.4 16-3.2 35.2-19.2 41.6s-35.2-3.2-41.6-19.2c-51.2-160-198.4-265.6-364.8-265.6-211.2 0-384 172.8-384 384s172.8 384 384 384c131.2 0 252.8-67.2 323.2-176l-83.2 9.6c-16 3.2-32-9.6-35.2-25.6z" />
<glyph unicode="&#xe942;" glyph-name="truck" d="M537.6 262.4h-60.8c-19.2 0-32-12.8-32-32s12.8-32 32-32h60.8c19.2 0 32 12.8 32 32s-16 32-32 32zM624 361.6v428.8c0 19.2-12.8 32-32 32h-512c-19.2 0-32-12.8-32-32v-560c0-19.2 12.8-32 32-32h32c19.2 0 32 12.8 32 32s-12.8 32-32 32v496h448v-396.8c0-19.2 12.8-32 32-32s32 16 32 32zM748.8 723.2h-70.4c-19.2 0-32-12.8-32-32s12.8-32 32-32h48l44.8-35.2h-83.2v-214.4h224v-140.8h-16c-19.2 0-32-12.8-32-32s12.8-32 32-32h80v332.8l-227.2 185.6zM752 470.4v89.6h96c0 0 0 0 0 0l64-51.2v-38.4h-160zM294.4 326.4c-70.4 0-128-57.6-128-128s57.6-128 128-128c70.4 0 128 57.6 128 128-3.2 70.4-57.6 128-128 128zM294.4 137.6c-35.2 0-64 28.8-64 64s28.8 64 64 64 64-28.8 64-64-28.8-64-64-64zM710.4 326.4c-70.4 0-128-57.6-128-128s57.6-128 128-128c70.4 0 128 57.6 128 128s-57.6 128-128 128zM710.4 137.6c-35.2 0-64 28.8-64 64s28.8 64 64 64 64-28.8 64-64-28.8-64-64-64zM217.6 569.6h240c19.2 0 32 12.8 32 32s-12.8 32-32 32h-240c-19.2 0-32-12.8-32-32s12.8-32 32-32zM217.6 435.2h240c19.2 0 32 12.8 32 32s-12.8 32-32 32h-240c-19.2 0-32-12.8-32-32s12.8-32 32-32z" />
<glyph unicode="&#xe943;" glyph-name="scale" d="M944 656c0 115.2-92.8 208-208 208s-208-92.8-208-208c0-108.8 83.2-198.4 192-208v-352h-608c-19.2 0-32-12.8-32-32s12.8-32 32-32h640c19.2 0 32 12.8 32 32v390.4c92.8 22.4 160 102.4 160 201.6zM736 512c-80 0-144 64-144 144s64 144 144 144c28.8 0 54.4-9.6 76.8-22.4l-83.2-83.2c-12.8-12.8-12.8-32 0-44.8 6.4-6.4 12.8-9.6 22.4-9.6s16 3.2 22.4 9.6l83.2 83.2c12.8-22.4 22.4-48 22.4-76.8 0-80-64-144-144-144zM112 128h384c19.2 0 32 12.8 32 32v320c0 19.2-12.8 32-32 32h-384c-19.2 0-32-12.8-32-32v-320c0-19.2 12.8-32 32-32zM144 448h320v-256h-320v256zM124.8 544h230.4c19.2 0 32 12.8 32 32v192c0 19.2-12.8 32-32 32h-230.4c-19.2 0-32-12.8-32-32v-192c0-19.2 12.8-32 32-32zM156.8 736h166.4v-128h-166.4v128z" />
<glyph unicode="&#xe944;" glyph-name="language" d="M739.2 800h-598.4c-32 0-60.8-25.6-60.8-60.8v-726.4c0-32 25.6-60.8 60.8-60.8h598.4c32 0 60.8 25.6 60.8 60.8v726.4c0 35.2-25.6 60.8-60.8 60.8zM736 16h-592v720h592v-720zM883.2 944h-614.4c-32 0-60.8-28.8-60.8-60.8v-16c0-19.2 12.8-32 32-32s32 12.8 32 32v12.8h608v-768h-19.2c-19.2 0-32-12.8-32-32s12.8-32 32-32h22.4c32 0 60.8 28.8 60.8 60.8v774.4c0 32-28.8 60.8-60.8 60.8zM268.8 153.6h128l16-41.6h60.8l-112 281.6h-57.6l-112-281.6h60.8l16 41.6zM332.8 316.8l41.6-105.6h-83.2l41.6 105.6zM576 240c-25.6 0-44.8-6.4-57.6-19.2s-19.2-28.8-19.2-48c0-19.2 6.4-32 19.2-44.8s32-16 57.6-16c12.8 0 25.6 6.4 41.6 16v-16h51.2v112c0 25.6-6.4 44.8-19.2 57.6s-32 19.2-54.4 19.2c-32 0-57.6-6.4-83.2-22.4l19.2-32c12.8 6.4 28.8 12.8 51.2 12.8 19.2 0 28.8-9.6 28.8-22.4v-6.4c-9.6 6.4-22.4 9.6-35.2 9.6zM617.6 169.6c-6.4-9.6-16-16-35.2-16-22.4 0-35.2 9.6-35.2 25.6s12.8 22.4 35.2 25.6c19.2 0 32-6.4 35.2-16v-19.2z" />
<glyph unicode="&#xe945;" glyph-name="document" d="M320 704h384c19.2 0 32 12.8 32 32s-12.8 32-32 32h-384c-19.2 0-32-12.8-32-32s12.8-32 32-32zM320 512h384c19.2 0 32 12.8 32 32s-12.8 32-32 32h-384c-19.2 0-32-12.8-32-32s12.8-32 32-32zM320 320h384c19.2 0 32 12.8 32 32s-12.8 32-32 32h-384c-19.2 0-32-12.8-32-32s12.8-32 32-32zM320 128h256c19.2 0 32 12.8 32 32s-12.8 32-32 32h-256c-19.2 0-32-12.8-32-32s12.8-32 32-32zM860.8 934.4h-697.6c-35.2 0-64-28.8-64-64v-848c0-35.2 28.8-64 64-64h697.6c35.2 0 64 28.8 64 64v848c0 35.2-28.8 64-64 64zM860.8 25.6c0 0 0 0 0 0h-697.6v848h697.6v-848z" />
<glyph unicode="&#xe946;" glyph-name="scissor" d="M585.6 448l358.4 246.4c16 9.6 19.2 28.8 9.6 44.8s-28.8 19.2-44.8 9.6l-380.8-259.2-176 118.4c0 80-64 144-144 144s-144-64-144-144 64-144 144-144c54.4 0 102.4 32 128 80l137.6-96-137.6-96c-22.4 48-70.4 80-128 80-80 0-144-64-144-144s64-144 144-144c80 0 144 64 144 144l179.2 121.6 380.8-259.2c6.4-3.2 12.8-6.4 19.2-6.4 9.6 0 19.2 6.4 25.6 12.8 9.6 16 6.4 35.2-9.6 44.8l-361.6 246.4zM208 528c-44.8 0-80 35.2-80 80s35.2 80 80 80 80-35.2 80-80-35.2-80-80-80zM208 208c-44.8 0-80 35.2-80 80s35.2 80 80 80 80-35.2 80-80-35.2-80-80-80z" />
<glyph unicode="&#xe947;" glyph-name="graph" d="M144 400c9.6 0 16 3.2 22.4 9.6l208 208 224-96 304 304c12.8 12.8 12.8 32 0 44.8s-32 12.8-44.8 0l-272-272-224 96-240-240c-12.8-12.8-12.8-32 0-44.8 6.4-6.4 12.8-9.6 22.4-9.6zM896 528h-96c-19.2 0-32-12.8-32-32v-448c0-19.2 12.8-32 32-32h96c19.2 0 32 12.8 32 32v448c0 19.2-12.8 32-32 32zM864 80h-32v384h32v-384zM672 368h-96c-19.2 0-32-12.8-32-32v-288c0-19.2 12.8-32 32-32h96c19.2 0 32 12.8 32 32v288c0 19.2-12.8 32-32 32zM640 80h-32v224h32v-224zM224 304h-96c-19.2 0-32-12.8-32-32v-224c0-19.2 12.8-32 32-32h96c19.2 0 32 12.8 32 32v224c0 19.2-12.8 32-32 32zM192 80h-32v160h32v-160zM448 464h-96c-19.2 0-32-12.8-32-32v-384c0-19.2 12.8-32 32-32h96c19.2 0 32 12.8 32 32v384c0 19.2-12.8 32-32 32zM416 80h-32v320h32v-320z" />
<glyph unicode="&#xe948;" glyph-name="good" d="M953.6 547.2c-6.4 9.6-16 12.8-25.6 12.8h-384v192c0 12.8-9.6 25.6-22.4 28.8s-25.6 0-35.2-9.6l-192-224c-3.2-3.2-6.4-12.8-6.4-19.2v-384c0-19.2 12.8-32 32-32h480c12.8 0 25.6 9.6 28.8 22.4l128 384c6.4 9.6 3.2 19.2-3.2 28.8zM777.6 176h-425.6v339.2l128 150.4v-137.6c0-9.6 3.2-16 9.6-22.4s12.8-9.6 22.4-9.6h371.2l-105.6-320zM224 528h-128c-19.2 0-32-12.8-32-32v-352c0-19.2 12.8-32 32-32h128c19.2 0 32 12.8 32 32v352c0 19.2-12.8 32-32 32zM192 176h-64v288h64v-288z" />
<glyph unicode="&#xe949;" glyph-name="bad" d="M704 784h-480c-12.8 0-25.6-9.6-28.8-22.4l-128-384c-3.2-9.6-3.2-19.2 3.2-28.8s16-12.8 25.6-12.8h384v-192c0-12.8 9.6-25.6 22.4-28.8 3.2 0 6.4-3.2 9.6-3.2 9.6 0 19.2 3.2 25.6 9.6l192 224c6.4 6.4 6.4 12.8 6.4 22.4v384c0 19.2-12.8 32-32 32zM672 380.8l-128-150.4v137.6c0 9.6-3.2 16-9.6 22.4s-12.8 9.6-22.4 9.6h-371.2l105.6 320h425.6v-339.2zM928 784h-128c-19.2 0-32-12.8-32-32v-352c0-19.2 12.8-32 32-32h128c19.2 0 32 12.8 32 32v352c0 19.2-12.8 32-32 32zM896 432h-64v288h64v-288z" />
<glyph unicode="&#xe94a;" glyph-name="hint" d="M512 912c-256 0-464-208-464-464s208-464 464-464 464 208 464 464-208 464-464 464zM512 48c-220.8 0-400 179.2-400 400s179.2 400 400 400 400-179.2 400-400-179.2-400-400-400zM515.2 694.4c-64 0-112-16-140.8-51.2-35.2-38.4-28.8-83.2-28.8-89.6 3.2-16 19.2-28.8 35.2-28.8 16 3.2 28.8 19.2 28.8 35.2 0 0-3.2 22.4 12.8 38.4 16 19.2 48 28.8 92.8 28.8s76.8-9.6 89.6-25.6c12.8-12.8 9.6-32 9.6-32s0-3.2 0-3.2c0 0-3.2-51.2-60.8-73.6-51.2-19.2-86.4-64-92.8-118.4 0-12.8 0-19.2 0-19.2 0-16 12.8-32 32-32 0 0 0 0 0 0 16 0 32 12.8 32 32 0 0 0 6.4 0 12.8 3.2 28.8 22.4 54.4 51.2 64 83.2 35.2 96 112 99.2 128 3.2 9.6 6.4 48-22.4 83.2-22.4 32-70.4 51.2-137.6 51.2zM556.8 230.4c0-24.742-20.058-44.8-44.8-44.8s-44.8 20.058-44.8 44.8c0 24.742 20.058 44.8 44.8 44.8s44.8-20.058 44.8-44.8z" />
<glyph unicode="&#xe94b;" glyph-name="info" d="M512 912c-256 0-464-208-464-464s208-464 464-464 464 208 464 464-208 464-464 464zM512 48c-220.8 0-400 179.2-400 400s179.2 400 400 400 400-179.2 400-400-179.2-400-400-400zM534.4 563.2h-44.8c-16 0-28.8-12.8-28.8-28.8v-316.8c0-16 12.8-28.8 28.8-28.8h44.8c16 0 28.8 12.8 28.8 28.8v316.8c0 16-12.8 28.8-28.8 28.8zM512 707.2c-16 0-32-6.4-41.6-16s-16-22.4-16-38.4 6.4-28.8 16-38.4c9.6-9.6 22.4-16 41.6-16 16 0 32 6.4 41.6 16s16 22.4 16 38.4-6.4 28.8-16 38.4c-9.6 9.6-25.6 16-41.6 16z" />
<glyph unicode="&#xe94c;" glyph-name="warn" d="M985.6 76.8l-444.8 774.4c-12.8 19.2-44.8 19.2-54.4 0l-448-774.4c-6.4-9.6-6.4-22.4 0-32s16-16 28.8-16h892.8c12.8 0 22.4 6.4 28.8 16s3.2 22.4-3.2 32zM121.6 92.8l390.4 678.4 390.4-675.2h-780.8zM512 224c-16 0-25.6-3.2-35.2-12.8s-12.8-19.2-12.8-32c0-12.8 3.2-25.6 12.8-32 9.6-9.6 22.4-12.8 35.2-12.8s28.8 3.2 35.2 12.8c9.6 9.6 12.8 19.2 12.8 32s-3.2 25.6-12.8 32c-6.4 6.4-19.2 12.8-35.2 12.8zM448 544l32-249.6c0-19.2 12.8-32 32-32s32 12.8 32 32l32 249.6c0 32 0 64-64 64s-64-32-64-64z" />
<glyph unicode="&#xe94d;" glyph-name="bat-full" d="M944 620.8h-99.2v44.8c0 44.8-38.4 83.2-83.2 83.2h-627.2c-44.8 0-83.2-38.4-83.2-83.2v-432c0-44.8 38.4-83.2 83.2-83.2h624c44.8 0 83.2 38.4 83.2 83.2v44.8h99.2c16 0 28.8 12.8 28.8 28.8v288c3.2 12.8-9.6 25.6-25.6 25.6zM787.2 230.4c0-16-12.8-28.8-28.8-28.8h-624c-16 0-28.8 12.8-28.8 28.8v435.2c0 16 12.8 28.8 28.8 28.8h624c16 0 28.8-12.8 28.8-28.8v-435.2zM915.2 332.8h-57.6v230.4h57.6v-230.4zM304 624h-96c-19.2 0-32-12.8-32-32v-288c0-19.2 12.8-32 32-32h96c19.2 0 32 12.8 32 32v288c0 19.2-16 32-32 32zM272 336h-32v224h32v-224zM496 624h-96c-19.2 0-32-12.8-32-32v-288c0-19.2 12.8-32 32-32h96c19.2 0 32 12.8 32 32v288c0 19.2-16 32-32 32zM464 336h-32v224h32v-224zM688 624h-96c-19.2 0-32-12.8-32-32v-288c0-19.2 12.8-32 32-32h96c19.2 0 32 12.8 32 32v288c0 19.2-16 32-32 32zM656 336h-32v224h32v-224z" />
<glyph unicode="&#xe94e;" glyph-name="bat-60" d="M944 620.8h-99.2v44.8c0 44.8-38.4 83.2-83.2 83.2h-627.2c-44.8 0-83.2-38.4-83.2-83.2v-432c0-44.8 38.4-83.2 83.2-83.2h624c44.8 0 83.2 38.4 83.2 83.2v44.8h99.2c16 0 28.8 12.8 28.8 28.8v288c3.2 12.8-9.6 25.6-25.6 25.6zM787.2 230.4c0-16-12.8-28.8-28.8-28.8h-624c-16 0-28.8 12.8-28.8 28.8v435.2c0 16 12.8 28.8 28.8 28.8h624c16 0 28.8-12.8 28.8-28.8v-435.2zM915.2 332.8h-57.6v230.4h57.6v-230.4zM304 624h-96c-19.2 0-32-12.8-32-32v-288c0-19.2 12.8-32 32-32h96c19.2 0 32 12.8 32 32v288c0 19.2-16 32-32 32zM272 336h-32v224h32v-224zM496 624h-96c-19.2 0-32-12.8-32-32v-288c0-19.2 12.8-32 32-32h96c19.2 0 32 12.8 32 32v288c0 19.2-16 32-32 32zM464 336h-32v224h32v-224z" />
<glyph unicode="&#xe94f;" glyph-name="checked" d="M320 704h384c19.2 0 32 12.8 32 32s-12.8 32-32 32h-384c-19.2 0-32-12.8-32-32s12.8-32 32-32zM320 512h384c19.2 0 32 12.8 32 32s-12.8 32-32 32h-384c-19.2 0-32-12.8-32-32s12.8-32 32-32zM736 352c0 19.2-12.8 32-32 32h-384c-19.2 0-32-12.8-32-32s12.8-32 32-32h384c19.2 0 32 12.8 32 32zM320 192c-19.2 0-32-12.8-32-32s12.8-32 32-32h128c19.2 0 32 12.8 32 32s-12.8 32-32 32h-128zM860.8 934.4h-697.6c-35.2 0-64-28.8-64-64v-848c0-35.2 28.8-64 64-64h380.8c19.2 0 32 12.8 32 32s-12.8 32-32 32h-380.8v848h697.6v-508.8c0-19.2 12.8-32 32-32s32 12.8 32 32v508.8c0 35.2-28.8 64-64 64zM854.4 262.4l-131.2-185.6-96 108.8c-12.8 12.8-32 12.8-44.8 3.2s-12.8-32-3.2-44.8l124.8-137.6c6.4-6.4 16-9.6 22.4-9.6 0 0 0 0 3.2 0 9.6 0 19.2 6.4 25.6 12.8l153.6 217.6c9.6 16 6.4 35.2-6.4 44.8-19.2 9.6-38.4 6.4-48-9.6z" />
<glyph unicode="&#xe950;" glyph-name="age-21" d="M454.4 25.6h-307.2v848h697.6v-524.8c0-19.2 12.8-32 32-32s32 12.8 32 32v521.6c0 35.2-28.8 64-64 64h-697.6c-35.2 0-64-28.8-64-64v-848c0-35.2 28.8-64 64-64h307.2c19.2 0 32 12.8 32 32s-12.8 35.2-32 35.2zM240 201.6c-19.2 0-32-12.8-32-32s12.8-32 32-32h195.2c19.2 0 32 12.8 32 32s-12.8 32-32 32h-195.2zM688 425.6c0 92.8-67.2 121.6-131.2 140.8l-19.2 6.4-12.8-16c-16-16-44.8-19.2-60.8-3.2l-16 16-19.2-6.4c-51.2-19.2-118.4-44.8-118.4-137.6 0-54.4 92.8-86.4 179.2-86.4 89.6 0 198.4 22.4 198.4 86.4zM432 496c35.2-22.4 86.4-22.4 121.6 3.2 51.2-19.2 67.2-35.2 67.2-70.4-12.8-9.6-64-25.6-137.6-25.6-60.8 0-102.4 19.2-115.2 28.8 6.4 32 22.4 48 64 64zM598.4 688c0 57.6-48 102.4-105.6 102.4s-105.6-44.8-105.6-102.4 48-102.4 105.6-102.4 105.6 44.8 105.6 102.4zM451.2 688c0 22.4 19.2 38.4 41.6 38.4s41.6-16 41.6-38.4-19.2-38.4-41.6-38.4c-22.4 0-41.6 16-41.6 38.4zM912 288h-32l-60.8-60.8c-9.6-9.6-9.6-28.8 0-41.6 9.6-9.6 28.8-9.6 41.6 0l19.2 19.2v-192c0-16 12.8-28.8 28.8-28.8h3.2c16 0 28.8 12.8 28.8 28.8v246.4c0 16-12.8 28.8-28.8 28.8zM723.2 48h-76.8c3.2 3.2 9.6 6.4 12.8 9.6 16 9.6 32 25.6 51.2 48 25.6 28.8 38.4 60.8 38.4 96 0 28.8-9.6 51.2-28.8 67.2-16 12.8-38.4 19.2-70.4 19.2-16 0-28.8 0-38.4-3.2-12.8-3.2-19.2-3.2-28.8-6.4-12.8-6.4-25.6-16-38.4-28.8l3.2-3.2c-3.2-9.6-3.2-22.4 6.4-32s22.4-12.8 32-6.4v0c3.2 3.2 6.4 6.4 9.6 9.6 0 0 0 0 3.2 0 3.2 3.2 6.4 3.2 9.6 6.4 0 0 3.2 0 3.2 3.2 3.2 0 6.4 3.2 12.8 3.2 0 0 3.2 0 3.2 0 6.4 0 9.6 0 16 0 25.6 0 41.6-6.4 48-22.4 6.4-12.8 6.4-28.8 0-41.6s-28.8-38.4-64-70.4c-19.2-16-35.2-28.8-48-38.4 0 0-3.2-3.2-3.2-3.2-3.2-3.2-6.4-3.2-9.6-6.4-9.6-6.4-16-16-16-25.6v-9.6c0-16 12.8-28.8 28.8-28.8h144c9.6 0 16 3.2 22.4 9.6s9.6 12.8 9.6 22.4c-3.2 19.2-16 32-32 32z" />
<glyph unicode="&#xe951;" glyph-name="age-19" d="M515.2 25.6h-371.2v848h697.6v-524.8c0-19.2 12.8-32 32-32s32 12.8 32 32v521.6c0 35.2-28.8 64-64 64h-697.6c-35.2 0-64-28.8-64-64v-848c0-35.2 28.8-64 64-64h371.2c19.2 0 32 12.8 32 32s-16 35.2-32 35.2zM233.6 201.6c-19.2 0-32-12.8-32-32s12.8-32 32-32h195.2c19.2 0 32 12.8 32 32s-12.8 32-32 32h-195.2zM681.6 425.6c0 92.8-67.2 121.6-131.2 140.8l-19.2 6.4-12.8-16c-16-16-44.8-19.2-60.8-3.2l-16 16-19.2-6.4c-51.2-19.2-118.4-44.8-118.4-137.6 0-54.4 92.8-86.4 179.2-86.4 92.8 0 198.4 22.4 198.4 86.4zM428.8 496c35.2-22.4 86.4-22.4 121.6 3.2 51.2-19.2 67.2-35.2 67.2-70.4-12.8-9.6-64-25.6-137.6-25.6-60.8 0-102.4 19.2-115.2 28.8 3.2 32 19.2 48 64 64zM592 688c0 57.6-48 102.4-105.6 102.4s-105.6-44.8-105.6-102.4 48-102.4 105.6-102.4 105.6 44.8 105.6 102.4zM444.8 688c0 22.4 19.2 38.4 41.6 38.4s41.6-16 41.6-38.4-19.2-38.4-41.6-38.4c-22.4 0-41.6 16-41.6 38.4zM659.2 275.2h-32l-57.6-57.6c-9.6-9.6-9.6-28.8 0-38.4s28.8-9.6 38.4 0l19.2 19.2v-185.6c0-16 12.8-28.8 28.8-28.8h3.2c16 0 28.8 12.8 28.8 28.8v233.6c-3.2 16-16 28.8-28.8 28.8zM921.6 236.8c-12.8 19.2-35.2 32-64 38.4-32 3.2-60.8-3.2-80-19.2s-32-38.4-35.2-64c-3.2-28.8 3.2-54.4 16-73.6s38.4-28.8 70.4-32c19.2-3.2 38.4 3.2 60.8 19.2-3.2-22.4-9.6-38.4-22.4-48-9.6-9.6-25.6-12.8-41.6-12.8-19.2 3.2-35.2 6.4-48 16l-32-35.2c19.2-19.2 44.8-32 76.8-35.2s60.8 6.4 83.2 32c22.4 22.4 35.2 67.2 35.2 128 3.2 35.2-6.4 67.2-19.2 86.4zM841.6 134.4c-32 0-48 16-48 48 0 25.6 16 38.4 44.8 38.4s44.8-16 44.8-41.6c0-28.8-12.8-44.8-41.6-44.8z" />
<glyph unicode="&#xe952;" glyph-name="age-18" d="M518.4 25.6h-371.2v848h697.6v-524.8c0-19.2 12.8-32 32-32s32 12.8 32 32v521.6c0 35.2-28.8 64-64 64h-697.6c-35.2 0-64-28.8-64-64v-848c0-35.2 28.8-64 64-64h371.2c19.2 0 32 12.8 32 32s-16 35.2-32 35.2zM236.8 201.6c-19.2 0-32-12.8-32-32s12.8-32 32-32h195.2c19.2 0 32 12.8 32 32s-12.8 32-32 32h-195.2zM684.8 425.6c0 92.8-67.2 121.6-131.2 140.8l-19.2 6.4-12.8-16c-16-16-44.8-19.2-60.8-3.2l-16 16-19.2-6.4c-51.2-19.2-118.4-44.8-118.4-137.6 0-54.4 92.8-86.4 179.2-86.4 92.8 0 198.4 22.4 198.4 86.4zM432 496c35.2-22.4 86.4-22.4 121.6 3.2 51.2-19.2 67.2-35.2 67.2-70.4-12.8-9.6-64-25.6-137.6-25.6-60.8 0-102.4 19.2-115.2 28.8 3.2 32 19.2 48 64 64zM595.2 688c0 57.6-48 102.4-105.6 102.4s-105.6-44.8-105.6-102.4 48-102.4 105.6-102.4 105.6 44.8 105.6 102.4zM448 688c0 22.4 19.2 38.4 41.6 38.4s41.6-16 41.6-38.4-19.2-38.4-41.6-38.4c-22.4 0-41.6 16-41.6 38.4zM662.4 275.2h-32l-57.6-57.6c-9.6-9.6-9.6-28.8 0-38.4s28.8-9.6 38.4 0l19.2 19.2v-185.6c0-16 12.8-28.8 28.8-28.8h3.2c16 0 28.8 12.8 28.8 28.8v233.6c-3.2 16-16 28.8-28.8 28.8zM912 128c-3.2 0-6.4 3.2-9.6 3.2 3.2 0 3.2 3.2 6.4 3.2 16 9.6 25.6 28.8 25.6 54.4s-9.6 48-25.6 64c-16 16-38.4 22.4-67.2 22.4s-51.2-6.4-67.2-22.4c-16-16-25.6-35.2-25.6-64 0-25.6 9.6-44.8 25.6-54.4 3.2 0 3.2-3.2 6.4-3.2-3.2 0-6.4-3.2-9.6-3.2-19.2-9.6-28.8-28.8-28.8-57.6s9.6-51.2 28.8-64 41.6-19.2 73.6-19.2c28.8 0 54.4 6.4 73.6 19.2s28.8 35.2 28.8 64c-6.4 32-16 51.2-35.2 57.6zM873.6 57.6c-6.4-9.6-16-16-32-16s-25.6 6.4-32 16c-6.4 9.6-6.4 22.4 0 32 3.2 9.6 16 12.8 32 16 16-3.2 28.8-9.6 32-16 6.4-9.6 6.4-22.4 0-32zM873.6 172.8c-6.4-9.6-16-12.8-32-12.8s-28.8 6.4-32 12.8c-6.4 9.6-6.4 22.4 0 32s16 16 32 16c16 0 25.6-6.4 32-16s6.4-22.4 0-32z" />
<glyph unicode="&#xe953;" glyph-name="signature" d="M956.8 800l-182.4 115.2c-6.4 3.2-16 6.4-25.6 3.2s-16-6.4-19.2-12.8l-105.6-169.6h-352c-19.2 0-32-12.8-32-32s12.8-32 32-32h310.4l-80-128c-3.2 0-3.2 0-6.4 0h-224c-19.2 0-32-12.8-32-32s12.8-32 32-32h192l-67.2-105.6c-6.4-12.8-6.4-25.6 0-35.2-3.2-6.4-6.4-9.6-6.4-16l-6.4-160h-112c-19.2 0-32-12.8-32-32s12.8-32 32-32h128c9.6 0 19.2 6.4 25.6 12.8 3.2 0 6.4 0 9.6 3.2l160 86.4c6.4 3.2 9.6 9.6 12.8 12.8 0 0 0 0 3.2 0 9.6 0 22.4 6.4 28.8 16l326.4 524.8c9.6 16 6.4 35.2-9.6 44.8zM454.4 195.2l3.2 105.6 89.6-54.4-92.8-51.2zM601.6 288l-128 80 294.4 476.8 128-80-294.4-476.8zM848 432c-19.2 0-32-12.8-32-32v-377.6h-697.6v848h489.6c19.2 0 32 12.8 32 32s-12.8 32-32 32h-492.8c-35.2 0-64-28.8-64-64v-848c0-35.2 28.8-64 64-64h697.6c35.2 0 64 28.8 64 64v377.6c3.2 19.2-12.8 32-28.8 32z" />
<glyph unicode="&#xe954;" glyph-name="folder" d="M912 704h-374.4l-118.4 89.6c-6.4 3.2-12.8 6.4-19.2 6.4h-288c-19.2 0-32-12.8-32-32v-640c0-19.2 12.8-32 32-32h800c19.2 0 32 12.8 32 32v544c0 19.2-12.8 32-32 32zM880 160h-736v576h246.4l118.4-89.6c6.4-3.2 12.8-6.4 19.2-6.4h352v-480zM592 736h320c19.2 0 32 12.8 32 32s-12.8 32-32 32h-320c-19.2 0-32-12.8-32-32s12.8-32 32-32zM208 288c0-19.2 12.8-32 32-32h416c19.2 0 32 12.8 32 32s-12.8 32-32 32h-416c-19.2 0-32-12.8-32-32zM240 384h192c19.2 0 32 12.8 32 32s-12.8 32-32 32h-192c-19.2 0-32-12.8-32-32s12.8-32 32-32z" />
<glyph unicode="&#xe955;" glyph-name="euro" d="M790.4 656h-684.8c-32 0-57.6-25.6-57.6-57.6v-524.8c0-32 25.6-57.6 57.6-57.6h684.8c32 0 57.6 25.6 57.6 57.6v524.8c0 28.8-28.8 57.6-57.6 57.6zM784 80h-672v512h672v-512zM915.2 880h-681.6c-35.2 0-60.8-28.8-60.8-60.8v-102.4c0-19.2 16-35.2 35.2-35.2s35.2 16 35.2 35.2v96h665.6v-540.8c-16-3.2-25.6-16-25.6-35.2s16-35.2 35.2-35.2c35.2 0 60.8 28.8 60.8 60.8v556.8c-3.2 35.2-28.8 60.8-64 60.8zM297.6 121.6c28.8 0 166.4 3.2 166.4 73.6 0 83.2-70.4 105.6-105.6 118.4l-22.4 6.4-12.8-16c-9.6-9.6-28.8-12.8-38.4 0l-16 16-19.2-6.4c-38.4-16-99.2-38.4-99.2-115.2 0-48 73.6-76.8 147.2-76.8zM256 243.2c28.8-16 67.2-16 96 3.2 35.2-12.8 44.8-25.6 44.8-44.8-12.8-6.4-48-19.2-99.2-19.2-44.8 0-73.6 12.8-83.2 19.2 3.2 19.2 12.8 28.8 41.6 41.6zM300.8 339.2c48 0 89.6 38.4 89.6 86.4s-41.6 86.4-89.6 86.4-89.6-38.4-89.6-86.4 41.6-86.4 89.6-86.4zM300.8 451.2c12.8 0 25.6-9.6 25.6-22.4s-12.8-22.4-25.6-22.4-25.6 9.6-25.6 22.4 12.8 22.4 25.6 22.4zM652.8 179.2c28.8 0 51.2 6.4 51.2 6.4l-9.6 51.2c0 0-19.2-6.4-38.4-6.4-38.4 0-73.6 22.4-86.4 60.8h89.6l6.4 32h-105.6c0 9.6-3.2 19.2 0 25.6h112l6.4 32h-108.8c12.8 35.2 44.8 57.6 86.4 57.6 19.2 0 35.2-3.2 35.2-3.2l12.8 51.2c0 0-22.4 6.4-44.8 6.4-70.4 0-128-44.8-147.2-112h-28.8v-32h22.4c0-9.6 0-19.2 0-25.6h-25.6v-32h28.8c12.8-67.2 70.4-112 144-112z" />
<glyph unicode="&#xe956;" glyph-name="usb" d="M972.8 454.4l-96 102.4c-12.8 12.8-32 12.8-44.8 3.2-12.8-12.8-12.8-32-3.2-44.8l38.4-41.6h-521.6l105.6 128h73.6c3.2-9.6 9.6-16 16-22.4 16-16 35.2-22.4 54.4-22.4s41.6 9.6 54.4 22.4 22.4 35.2 22.4 54.4c0 19.2-9.6 41.6-22.4 54.4-28.8 28.8-80 28.8-108.8 0-6.4-6.4-12.8-16-16-22.4h-89.6c-9.6 0-19.2-3.2-25.6-12.8l-150.4-179.2h-70.4c-3.2 9.6-9.6 16-16 22.4-28.8 28.8-80 28.8-108.8 0s-28.8-80 0-108.8c16-16 35.2-22.4 54.4-22.4s41.6 9.6 54.4 22.4c6.4 6.4 12.8 12.8 16 22.4h236.8l182.4-182.4c6.4-6.4 12.8-9.6 22.4-9.6h64c0-19.2 12.8-32 32-32h64c19.2 0 32 12.8 32 32v64c0 19.2-12.8 32-32 32h-64c-19.2 0-32-12.8-32-32h-51.2l-128 128h361.6l-44.8-38.4c-12.8-12.8-12.8-32-3.2-44.8 6.4-6.4 16-9.6 22.4-9.6s16 3.2 22.4 9.6l96 86.4c6.4 6.4 9.6 12.8 9.6 22.4 3.2 3.2 0 12.8-6.4 19.2z" />
<glyph unicode="&#xe957;" glyph-name="bat-emp" d="M944 620.8h-99.2v44.8c0 44.8-38.4 83.2-83.2 83.2h-627.2c-44.8 0-83.2-38.4-83.2-83.2v-432c0-44.8 38.4-83.2 83.2-83.2h624c44.8 0 83.2 38.4 83.2 83.2v44.8h99.2c16 0 28.8 12.8 28.8 28.8v288c3.2 12.8-9.6 25.6-25.6 25.6zM787.2 230.4c0-16-12.8-28.8-28.8-28.8h-624c-16 0-28.8 12.8-28.8 28.8v435.2c0 16 12.8 28.8 28.8 28.8h624c16 0 28.8-12.8 28.8-28.8v-435.2zM915.2 332.8h-57.6v230.4h57.6v-230.4zM233.6 451.2c-9.6 9.6-22.4 16-35.2 9.6-12.8-3.2-22.4-16-22.4-28.8v-128c0-19.2 12.8-32 32-32h96c12.8 0 22.4 6.4 28.8 19.2 6.4 9.6 3.2 22.4-3.2 32l-96 128z" />
<glyph unicode="&#xe958;" glyph-name="bat-30" d="M944 620.8h-99.2v44.8c0 44.8-38.4 83.2-83.2 83.2h-627.2c-44.8 0-83.2-38.4-83.2-83.2v-432c0-44.8 38.4-83.2 83.2-83.2h624c44.8 0 83.2 38.4 83.2 83.2v44.8h99.2c16 0 28.8 12.8 28.8 28.8v288c3.2 12.8-9.6 25.6-25.6 25.6zM787.2 230.4c0-16-12.8-28.8-28.8-28.8h-624c-16 0-28.8 12.8-28.8 28.8v435.2c0 16 12.8 28.8 28.8 28.8h624c16 0 28.8-12.8 28.8-28.8v-435.2zM915.2 332.8h-57.6v230.4h57.6v-230.4zM304 624h-96c-19.2 0-32-12.8-32-32v-288c0-19.2 12.8-32 32-32h96c19.2 0 32 12.8 32 32v288c0 19.2-16 32-32 32zM272 336h-32v224h32v-224z" />
<glyph unicode="&#xe959;" glyph-name="collect" d="M976 860.8c0 3.2 0 6.4-3.2 9.6 0 0 0 0 0 0s0 0 0 0c0 3.2-3.2 6.4-6.4 9.6 0 0 0 0-3.2 3.2s-3.2 3.2-6.4 3.2c0 0-3.2 0-3.2 0-3.2 0-6.4 3.2-9.6 3.2h-640c-9.6 0-16-3.2-22.4-9.6l-224-224c0 0 0 0 0 0-3.2 0-6.4-3.2-6.4-6.4 0 0 0-3.2 0-3.2 0-3.2 0-6.4-3.2-9.6 0 0 0 0 0-3.2v-598.4c0-19.2 12.8-32 32-32h640c3.2 0 9.6 0 12.8 3.2s6.4 3.2 9.6 6.4l224 224c6.4 6.4 9.6 12.8 9.6 22.4v601.6c0-3.2 0 0 0 0zM316.8 825.6h550.4l-48-48h-550.4l48 48zM688 70.4h-576v531.2h576v-531.2zM707.2 665.6h-550.4l48 48c0 0 0 0 3.2 0h547.2l-48-48zM912 275.2l-160-160v505.6l64 64v-236.8c0-19.2 12.8-32 32-32s32 12.8 32 32v297.6c0 0 0 0 0 3.2l32 32v-505.6zM313.6 259.2l-44.8-44.8c16-16 35.2-28.8 54.4-35.2s38.4-12.8 64-12.8v-22.4h32v22.4c25.6 3.2 51.2 12.8 73.6 28.8 25.6 19.2 38.4 44.8 38.4 70.4 0 35.2-12.8 60.8-35.2 76.8s-48 25.6-73.6 28.8v73.6c25.6 0 44.8-9.6 60.8-28.8l44.8 44.8c-16 16-32 25.6-48 35.2-12.8 6.4-32 9.6-57.6 9.6v22.4h-32v-22.4c-22.4-3.2-44.8-12.8-67.2-25.6-25.6-19.2-38.4-41.6-38.4-73.6 0-35.2 12.8-57.6 35.2-70.4s44.8-22.4 70.4-25.6v-83.2c-35.2 6.4-60.8 16-76.8 32zM419.2 307.2c16-3.2 25.6-9.6 28.8-19.2 6.4-12.8 6.4-25.6 0-38.4-6.4-9.6-16-12.8-28.8-16v73.6zM364.8 390.4c-6.4 9.6-6.4 19.2 0 32 3.2 6.4 12.8 12.8 25.6 16v-64c-12.8 6.4-22.4 9.6-25.6 16z" />
<glyph unicode="&#xe95a;" glyph-name="return" d="M764.8 278.4l-112-112v89.6c0 19.2-12.8 32-32 32s-32-12.8-32-32v-134.4h-489.6v457.6h489.6v-105.6c0-19.2 12.8-32 32-32s32 12.8 32 32v121.6l48 48v-99.2c0-19.2 12.8-32 32-32s32 12.8 32 32v163.2c0 0 0 0 0 0l19.2 19.2v-256c0-19.2 12.8-32 32-32s32 12.8 32 32v332.8c0 0 0 0 0 0 0 3.2 0 6.4-3.2 9.6 0 0 0 0 0 0s0 0 0 0c0 3.2-3.2 6.4-6.4 9.6 0 0 0 0-3.2 3.2 0 3.2 0 6.4-3.2 6.4 0 0-3.2 0-3.2 0-3.2 0-6.4 3.2-9.6 3.2h-556.8c-9.6 0-16-3.2-22.4-9.6l-195.2-195.2c0 0 0 0 0 0-3.2-3.2-3.2-6.4-6.4-9.6 0 0 0-3.2 0-3.2 0-3.2 0-6.4-3.2-9.6 0 0 0 0 0-3.2v-518.4c0-19.2 12.8-32 32-32h553.6c3.2 0 9.6 0 12.8 3.2s6.4 3.2 9.6 6.4l166.4 166.4c12.8 12.8 12.8 32 0 44.8s-32 16-44.8 3.2zM275.2 771.2h464l-32-32h-464l32 32zM179.2 675.2c0 0 0 0 0 0h464l-32-32h-467.2l35.2 32zM892.8 608c-16 0-32-12.8-32-32 0-16 12.8-32 32-32 6.4 0 32-6.4 32-64 0-96-32-96-96-96h-569.6l86.4 76.8c12.8 12.8 12.8 32 3.2 44.8-12.8 12.8-32 12.8-44.8 3.2l-124.8-112c-6.4-6.4-9.6-12.8-9.6-22.4s3.2-16 9.6-22.4l115.2-118.4c6.4-6.4 16-9.6 25.6-9.6s16 3.2 22.4 9.6c12.8 12.8 12.8 32 0 44.8l-41.6 41.6h528c64 0 160 0 160 160 0 102.4-64 128-96 128z" />
<glyph unicode="&#xe95b;" glyph-name="laptop" d="M982.4 230.4c-9.6 12.8-28.8 22.4-44.8 22.4h-12.8v521.6c0 35.2-28.8 60.8-60.8 60.8h-704c-32 0-60.8-25.6-60.8-60.8v-521.6h-12.8c-19.2 0-35.2-6.4-44.8-22.4-9.6-12.8-12.8-32-9.6-48l19.2-80c6.4-25.6 28.8-41.6 54.4-41.6h806.4c25.6 0 48 16 54.4 41.6l19.2 80c9.6 16 6.4 35.2-3.2 48zM163.2 771.2h694.4v-518.4h-57.6v451.2c0 19.2-12.8 32-32 32h-508.8c-19.2 0-32-12.8-32-32v-451.2h-64v518.4zM736 252.8h-444.8v419.2h444.8v-419.2zM908.8 124.8h-793.6l-16 64h41.6c6.4-3.2 12.8-3.2 22.4-3.2h700.8c6.4 0 16 0 22.4 3.2h41.6l-19.2-64zM604.8 326.4c6.4-3.2 12.8-6.4 19.2-6.4 9.6 0 19.2 3.2 25.6 12.8 9.6 12.8 9.6 35.2-6.4 44.8l-198.4 156.8c-12.8 9.6-35.2 9.6-44.8-6.4-9.6-12.8-9.6-35.2 6.4-44.8l198.4-156.8zM608 480c6.4-6.4 12.8-6.4 19.2-6.4 9.6 0 19.2 3.2 25.6 12.8 9.6 12.8 9.6 35.2-3.2 44.8l-89.6 73.6c-12.8 9.6-35.2 9.6-44.8-3.2s-9.6-35.2 3.2-44.8l89.6-76.8z" />
<glyph unicode="&#xe95c;" glyph-name="floppy" d="M384 320h256c19.2 0 32 12.8 32 32s-12.8 32-32 32h-256c-19.2 0-32-12.8-32-32s12.8-32 32-32zM384 128h256c19.2 0 32 12.8 32 32s-12.8 32-32 32h-256c-19.2 0-32-12.8-32-32s12.8-32 32-32zM918.4 694.4l-201.6 220.8c-6.4 9.6-12.8 12.8-22.4 12.8h-566.4c-19.2 0-32-12.8-32-32v-896c0-19.2 12.8-32 32-32h768c19.2 0 32 12.8 32 32v675.2c0 6.4-3.2 16-9.6 19.2zM576 864v-128h-288v128h288zM739.2 32h-454.4v451.2h451.2v-451.2zM864 32h-67.2v480c0 16-12.8 28.8-28.8 28.8h-512c-16 0-28.8-12.8-28.8-28.8v-480h-67.2v832h64v-160c0-19.2 12.8-32 32-32h352c19.2 0 32 12.8 32 32v160h38.4l185.6-201.6v-630.4z" />
<glyph unicode="&#xe95d;" glyph-name="chev-w-d" d="M838.4 467.2c-12.8 12.8-32 9.6-44.8-3.2l-278.4-310.4-278.4 310.4c-12.8 12.8-32 12.8-44.8 3.2-12.8-12.8-12.8-32-3.2-44.8l326.4-364.8 326.4 364.8c12.8 12.8 9.6 32-3.2 44.8zM524.8 409.6l310.4 377.6c9.6 12.8 9.6 32-6.4 44.8s-35.2 9.6-44.8-3.2l-265.6-323.2-288 297.6c-12.8 12.8-32 12.8-44.8 0s-12.8-32 0-44.8l339.2-348.8z" />
<glyph unicode="&#xe95e;" glyph-name="chev-w-up" d="M230.4 432l278.4 310.4 278.4-310.4c6.4-6.4 16-9.6 22.4-9.6s16 3.2 22.4 9.6c12.8 12.8 12.8 32 3.2 44.8l-326.4 361.6-326.4-364.8c-12.8-12.8-9.6-32 3.2-44.8 12.8-9.6 32-9.6 44.8 3.2zM841.6 137.6l-342.4 348.8-310.4-377.6c-9.6-12.8-9.6-32 6.4-44.8 6.4-6.4 12.8-6.4 19.2-6.4 9.6 0 19.2 3.2 25.6 12.8l265.6 323.2 291.2-297.6c12.8-12.8 32-12.8 44.8 0 9.6 6.4 9.6 28.8 0 41.6z" />
<glyph unicode="&#xe95f;" glyph-name="chev-w-l" d="M217.6 444.8l310.4 278.4c12.8 12.8 12.8 32 3.2 44.8s-32 12.8-44.8 3.2l-364.8-326.4 364.8-326.4c6.4-6.4 12.8-9.6 22.4-9.6s16 3.2 22.4 9.6c12.8 12.8 9.6 32-3.2 44.8l-310.4 281.6zM889.6 176l-323.2 265.6 297.6 291.2c12.8 12.8 12.8 32 0 44.8s-32 12.8-44.8 0l-345.6-342.4 377.6-310.4c6.4-6.4 12.8-6.4 19.2-6.4 9.6 0 19.2 3.2 25.6 12.8 9.6 12.8 9.6 32-6.4 44.8z" />
<glyph unicode="&#xe960;" glyph-name="chev-w-r" d="M537.6 777.6c-12.8 12.8-32 9.6-44.8-3.2s-9.6-32 3.2-44.8l310.4-278.4-310.4-278.4c-12.8-12.8-12.8-32-3.2-44.8 6.4-6.4 16-9.6 22.4-9.6s16 3.2 22.4 9.6l364.8 326.4-364.8 323.2zM172.8 771.2c-12.8 9.6-32 9.6-44.8-6.4-9.6-12.8-9.6-32 6.4-44.8l323.2-265.6-297.6-291.2c-12.8-12.8-12.8-32 0-44.8 6.4-6.4 16-9.6 22.4-9.6 9.6 0 16 3.2 22.4 9.6l348.8 339.2-380.8 313.6z" />
<glyph unicode="&#xe961;" glyph-name="tri-l-up" d="M736 304h-448c-12.8 0-25.6 6.4-28.8 19.2-6.4 12.8-3.2 25.6 6.4 35.2l224 224c12.8 12.8 32 12.8 44.8 0l224-224c9.6-9.6 12.8-22.4 6.4-35.2-3.2-12.8-16-19.2-28.8-19.2zM364.8 368h294.4l-147.2 147.2-147.2-147.2z" />
<glyph unicode="&#xe962;" glyph-name="tri-l-down" d="M512 304c-9.6 0-16 3.2-22.4 9.6l-224 224c-9.6 9.6-12.8 22.4-6.4 35.2s16 19.2 28.8 19.2h448c12.8 0 25.6-6.4 28.8-19.2 6.4-12.8 3.2-25.6-6.4-35.2l-224-224c-6.4-6.4-12.8-9.6-22.4-9.6zM364.8 528l147.2-147.2 147.2 147.2h-294.4z" />
<glyph unicode="&#xe992;" glyph-name="tri-up" d="M102.4 248.32l409.6 399.36 409.6-399.36z" />
<glyph unicode="&#xe9a0;" glyph-name="tri-down" d="M921.6 535.040l-409.6-399.36-409.6 399.36z" />
<glyph unicode="&#xe9a9;" glyph-name="calendar" d="M896 847.36h-51.2c-15.36 0-25.6-10.24-25.6-25.6s10.24-25.6 25.6-25.6h51.2c15.36 0 25.6-10.24 25.6-25.6v-138.24h-819.2v138.24c0 15.36 10.24 25.6 25.6 25.6h51.2c15.36 0 25.6 10.24 25.6 25.6s-10.24 25.6-25.6 25.6h-51.2c-40.96 0-76.8-35.84-76.8-76.8v-727.040c0-40.96 35.84-76.8 76.8-76.8h768c40.96 0 76.8 35.84 76.8 76.8v727.040c0 40.96-35.84 76.8-76.8 76.8zM896 17.92h-768c-15.36 0-25.6 10.24-25.6 25.6v532.48h819.2v-532.48c0-15.36-10.24-25.6-25.6-25.6zM384 796.16h261.12c15.36 0 25.6 10.24 25.6 25.6s-10.24 25.6-25.6 25.6h-261.12c-15.36 0-25.6-10.24-25.6-25.6s10.24-25.6 25.6-25.6zM281.6 688.64c15.36 0 25.6 10.24 25.6 25.6v189.44c0 15.36-10.24 25.6-25.6 25.6s-25.6-10.24-25.6-25.6v-189.44c0-15.36 10.24-25.6 25.6-25.6zM742.4 688.64c15.36 0 25.6 15.36 25.6 25.6v189.44c0 15.36-10.24 25.6-25.6 25.6s-25.6-10.24-25.6-25.6v-189.44c0-10.24 10.24-25.6 25.6-25.6zM307.2 488.96h-133.12v-133.12c0-15.36 10.24-25.6 25.6-25.6s25.6 10.24 25.6 25.6v81.92h81.92c15.36 0 25.6 10.24 25.6 25.6s-15.36 25.6-25.6 25.6zM307.2 248.32h-133.12v-133.12c0-15.36 10.24-25.6 25.6-25.6s25.6 10.24 25.6 25.6v81.92h81.92c15.36 0 25.6 10.24 25.6 25.6s-15.36 25.6-25.6 25.6zM563.2 488.96h-133.12v-133.12c0-15.36 10.24-25.6 25.6-25.6s25.6 10.24 25.6 25.6v81.92h81.92c15.36 0 25.6 10.24 25.6 25.6s-15.36 25.6-25.6 25.6zM563.2 248.32h-133.12v-133.12c0-15.36 10.24-25.6 25.6-25.6s25.6 10.24 25.6 25.6v81.92h81.92c15.36 0 25.6 10.24 25.6 25.6s-15.36 25.6-25.6 25.6zM824.32 488.96h-128v-133.12c0-15.36 10.24-25.6 25.6-25.6s25.6 10.24 25.6 25.6v81.92h76.8c15.36 0 25.6 10.24 25.6 25.6s-10.24 25.6-25.6 25.6zM824.32 248.32h-128v-133.12c0-15.36 10.24-25.6 25.6-25.6s25.6 10.24 25.6 25.6v81.92h76.8c15.36 0 25.6 10.24 25.6 25.6s-10.24 25.6-25.6 25.6z" />
<glyph unicode="&#xe9aa;" glyph-name="users" d="M355.2 32c-3.2 0-3.2 0-6.4 0-166.4 0-313.6 67.2-313.6 144 0 147.2 96 198.4 214.4 243.2l19.2 6.4 16-16c19.2-22.4 48-35.2 80-35.2s60.8 12.8 83.2 38.4l12.8 16 19.2-6.4c115.2-38.4 230.4-92.8 227.2-252.8 3.2-96-179.2-137.6-352-137.6zM256 348.8c-96-38.4-153.6-73.6-153.6-176 3.2-16 89.6-76.8 249.6-76.8 3.2 0 3.2 0 6.4 0 179.2 0 288 48 288 73.6 0 102.4-54.4 144-166.4 185.6-32-28.8-73.6-44.8-115.2-44.8s-80 12.8-108.8 38.4zM364.8 467.2c0 0 0 0 0 0-96 0-172.8 76.8-172.8 172.8 0 44.8 19.2 89.6 51.2 121.6s76.8 51.2 121.6 51.2c44.8 0 89.6-19.2 121.6-51.2s51.2-76.8 51.2-121.6-19.2-89.6-51.2-121.6c-32-35.2-73.6-51.2-121.6-51.2zM364.8 748.8c-28.8 0-57.6-9.6-76.8-32-19.2-19.2-32-48-32-76.8 0-60.8 48-108.8 108.8-108.8 28.8 0 57.6 9.6 76.8 32 19.2 19.2 32 48 32 76.8v0c0 28.8-9.6 57.6-32 76.8-19.2 19.2-44.8 32-76.8 32 0 0 0 0 0 0zM761.6 275.2c-16 0-32 12.8-32 28.8 0 19.2 12.8 32 28.8 35.2 105.6 6.4 156.8 35.2 163.2 44.8 0 70.4-35.2 96-112 124.8-25.6-19.2-54.4-32-86.4-32-28.8 0-57.6 9.6-80 28.8-28.8-12.8-54.4-22.4-70.4-41.6-12.8-12.8-32-9.6-44.8 3.2s-9.6 32 3.2 44.8c28.8 25.6 70.4 44.8 108.8 60.8l19.2 6.4 16-16c12.8-12.8 32-22.4 51.2-22.4 0 0 0 0 0 0 19.2 0 41.6 9.6 54.4 25.6l12.8 16 19.2-6.4c89.6-28.8 176-70.4 172.8-192 0-89.6-169.6-105.6-224-108.8 3.2 0 0 0 0 0zM726.4 592c-3.2 0-3.2 0 0 0-76.8 0-137.6 60.8-134.4 137.6 0 73.6 60.8 134.4 134.4 134.4 0 0 0 0 0 0 35.2 0 70.4-16 96-41.6s38.4-60.8 38.4-96-16-70.4-41.6-96c-25.6-22.4-57.6-38.4-92.8-38.4zM726.4 800c-38.4 0-70.4-32-70.4-70.4s32-73.6 70.4-73.6c19.2 0 38.4 6.4 51.2 19.2s22.4 32 22.4 51.2v0c0 19.2-6.4 38.4-19.2 51.2s-35.2 22.4-54.4 22.4c0 0 0 0 0 0z" />
<glyph unicode="&#xe9ab;" glyph-name="building2" d="M944 32h-32v864c0 19.2-12.8 32-32 32h-736c-19.2 0-32-12.8-32-32v-864h-32c-19.2 0-32-12.8-32-32s12.8-32 32-32h864c19.2 0 32 12.8 32 32s-12.8 32-32 32zM598.4 41.6v150.4h115.2v-150.4h-115.2zM777.6 32v185.6c0 22.4-16 38.4-38.4 38.4h-166.4c-22.4 0-38.4-16-38.4-38.4v-185.6h-358.4v832h672v-832h-70.4zM736 736h-448c-19.2 0-32-12.8-32-32s12.8-32 32-32h448c19.2 0 32 12.8 32 32s-12.8 32-32 32zM736 576h-448c-19.2 0-32-12.8-32-32s12.8-32 32-32h448c19.2 0 32 12.8 32 32s-12.8 32-32 32zM736 416h-448c-19.2 0-32-12.8-32-32s12.8-32 32-32h448c19.2 0 32 12.8 32 32s-12.8 32-32 32zM416 224h-128c-19.2 0-32-12.8-32-32s12.8-32 32-32h128c19.2 0 32 12.8 32 32s-12.8 32-32 32z" />
<glyph unicode="&#xe9ac;" glyph-name="creditcard" d="M432 240h-224c-19.2 0-32-12.8-32-32s12.8-32 32-32h224c19.2 0 32 12.8 32 32s-16 32-32 32zM688 240h-64c-19.2 0-32-12.8-32-32s12.8-32 32-32h64c19.2 0 32 12.8 32 32s-16 32-32 32zM208 448h64c19.2 0 32 12.8 32 32s-12.8 32-32 32h-64c-19.2 0-32-12.8-32-32s12.8-32 32-32zM790.4 624h-688c-32 0-57.6-25.6-57.6-57.6v-464c0-32 25.6-57.6 57.6-57.6h688c32 0 57.6 25.6 57.6 57.6v464c0 32-25.6 57.6-57.6 57.6zM784 112h-672v448h672v-448zM915.2 848h-681.6c-35.2 0-60.8-28.8-60.8-60.8v-102.4c0-19.2 16-35.2 35.2-35.2 0 0 0 0 0 0h700.8v-412.8c-16-3.2-25.6-16-25.6-35.2s16-35.2 35.2-35.2c35.2 0 60.8 28.8 60.8 60.8v560c-3.2 35.2-28.8 60.8-64 60.8zM240 720v60.8h665.6v-57.6h-665.6zM188.8 313.6h515.2c19.2 0 32 12.8 32 32s-12.8 32-32 32h-515.2c-19.2 0-32-12.8-32-32s12.8-32 32-32z" />
<glyph unicode="&#xe9ad;" glyph-name="store" d="M960 886.4c0 16-16 28.8-32 28.8h-832c-16 0-28.8-12.8-32-28.8l-32-352c0-9.6 3.2-19.2 9.6-25.6s16-9.6 22.4-9.6h35.2v-464c0-32 25.6-57.6 57.6-57.6h713.6c32 0 57.6 25.6 57.6 57.6v464h32c9.6 0 16 3.2 22.4 9.6s9.6 16 9.6 25.6l-32 352zM531.2 851.2h176l25.6-288h-201.6v288zM316.8 851.2h150.4v-288h-176l25.6 288zM99.2 563.2l25.6 288h128l-25.6-288h-128zM163.2 44.8v454.4h412.8v-448c0-3.2 0-6.4 3.2-6.4h-416zM860.8 44.8h-224c0 3.2 3.2 6.4 3.2 6.4v448h220.8v-454.4zM870.4 563.2h-70.4l-25.6 288h128l25.6-288h-57.6zM281.6 425.6c-12.8 12.8-32 16-44.8 3.2s-16-32-3.2-44.8l192-224c6.4-6.4 16-9.6 25.6-9.6 6.4 0 16 3.2 22.4 6.4 12.8 12.8 16 32 3.2 44.8l-195.2 224zM432 451.2c-12.8 12.8-32 12.8-44.8 0s-12.8-32 0-44.8l112-115.2c6.4-6.4 16-9.6 22.4-9.6 9.6 0 16 3.2 22.4 9.6 12.8 12.8 12.8 32 0 44.8l-112 115.2zM832 288c0-35.346-28.654-64-64-64s-64 28.654-64 64c0 35.346 28.654 64 64 64s64-28.654 64-64z" />
<glyph unicode="&#xe9ae;" glyph-name="edit" d="M288 358.4c-3.2-3.2-6.4-9.6-9.6-16l-38.4-176c-3.2-9.6 0-22.4 9.6-32 6.4-3.2 12.8-6.4 19.2-6.4 3.2 0 6.4 0 9.6 0l172.8 54.4c6.4 3.2 12.8 6.4 16 9.6 3.2 0 6.4 0 6.4 0s0 0 0 0c9.6 0 16 3.2 22.4 9.6l428.8 460.8c12.8 12.8 12.8 32-3.2 44.8l-160 147.2c-12.8 12.8-32 12.8-44.8-3.2l-422.4-457.6c-9.6-9.6-12.8-22.4-6.4-35.2zM336 310.4l76.8-70.4-99.2-32 22.4 102.4zM742.4 787.2l112-102.4-380.8-412.8-112 102.4 380.8 412.8zM960 582.4c-19.2 0-32-12.8-32-32v-496c0-12.8-9.6-25.6-25.6-25.6h-780.8c-16 3.2-25.6 12.8-25.6 28.8v780.8c0 16 9.6 25.6 25.6 25.6h448c19.2 0 32 12.8 32 32s-12.8 32-32 32h-448c-51.2 0-89.6-38.4-89.6-89.6v-784c0-48 38.4-86.4 89.6-86.4h784c48 0 89.6 38.4 89.6 89.6v492.8c-3.2 19.2-16 32-35.2 32z" />
<glyph unicode="&#xe9af;" glyph-name="bin" d="M899.2 790.4h-163.2c-6.4 73.6-67.2 131.2-144 131.2h-160c-73.6 0-134.4-57.6-144-131.2h-163.2c-32 0-60.8-25.6-60.8-60.8v-67.2c0-32 25.6-60.8 60.8-60.8h6.4c-3.2-6.4-3.2-12.8-3.2-19.2v-524.8c0-44.8 35.2-80 80-80h588.8c44.8 0 80 35.2 80 80v524.8c0 6.4 0 12.8-3.2 19.2h22.4c32 0 60.8 25.6 60.8 60.8v67.2c0 32-25.6 60.8-57.6 60.8zM432 857.6h160c38.4 0 70.4-28.8 80-64h-316.8c6.4 35.2 38.4 64 76.8 64zM812.8 57.6c0-9.6-6.4-16-16-16h-588.8c-9.6 0-16 6.4-16 16v524.8c0 9.6 6.4 16 16 16h588.8c9.6 0 16-6.4 16-16v-524.8zM899.2 662.4h-774.4v67.2h771.2l3.2-67.2zM384 537.6c-19.2 0-32-12.8-32-32v-384c0-19.2 12.8-32 32-32s32 12.8 32 32v384c0 16-12.8 32-32 32zM608 537.6c-19.2 0-32-12.8-32-32v-384c0-19.2 12.8-32 32-32s32 12.8 32 32v384c0 16-12.8 32-32 32z" />
</font>
</defs>
</svg>
